<?xml version="1.0" encoding="UTF-8"?>
<svg width="25px" height="25px" viewBox="0 0 25 25" version="1.1" xmlns="http://www.w3.org/2000/svg" xmlns:xlink="http://www.w3.org/1999/xlink">
    <!-- Generator: sketchtool 63.1 (101010) - https://sketch.com -->
    <title>1E77D074-2FB7-467E-BA37-6AD0B02972C0@1.5x</title>
    <desc>Created with sketchtool.</desc>
    <g id="All-screens" stroke="none" stroke-width="1" fill="none" fill-rule="evenodd">
        <g id="1C-Assets-&amp;-Liabilities" transform="translate(-330.000000, -49.000000)" fill="#FFFFFF" fill-rule="nonzero">
            <g id="Group-11" transform="translate(19.000000, 36.000000)">
                <g id="analytics-(1)" transform="translate(311.000000, 13.000000)">
                    <path d="M22.4384308,2.56156924 C20.7864761,0.909805273 18.5901642,0 16.2540436,0 C13.9179229,0 11.7218018,0.909805273 10.0698471,2.56156924 C8.41789248,4.21352388 7.50827788,6.40983584 7.50827788,8.74595645 C7.50827788,10.8362198 8.23669434,12.8145218 9.57317354,14.3909454 L7.80487061,16.1592483 C6.89830781,15.6919479 5.75485229,15.8376694 4.99591826,16.5966034 L0.705718994,20.8869934 C0.250625586,21.3420868 0,21.9470978 0,22.5906372 C0,23.2341767 0.250625586,23.8391876 0.705718994,24.294281 C1.17549897,24.7638702 1.7923355,24.9988556 2.40936279,24.9988556 C3.02639009,24.9988556 3.64322661,24.7638702 4.11300659,24.294281 L8.40339658,20.003891 C8.85848999,19.5489883 9.10911563,18.9439773 9.10911563,18.3002472 C9.10911563,17.90905 9.01641846,17.5319672 8.8415146,17.1943665 L10.6090546,15.4266357 C12.1856689,16.7633057 14.1639709,17.4917221 16.2542343,17.4917221 C18.5903549,17.4917221 20.7866669,16.5819168 22.4384308,14.9301529 C24.0901947,13.2781982 25,11.0820771 25,8.74576567 C25,6.40983584 24.0901947,4.21352388 22.4384308,2.56156924 Z M7.36751558,18.9682007 L3.07712554,23.2585907 C2.70900728,23.626709 2.10971831,23.626709 1.74140928,23.2585907 C1.56307222,23.0800629 1.46484375,22.8429794 1.46484375,22.5906372 C1.46484375,22.338295 1.56307222,22.1012115 1.74140928,21.9226837 L6.03179932,17.6324844 C6.39991758,17.2641754 6.99920654,17.2641754 7.36751558,17.6324844 C7.73582461,18.0007935 7.73582461,18.5998917 7.36751558,18.9682007 Z M21.4025498,13.8942719 C20.0273514,15.2694702 18.198967,16.0268784 16.2540436,16.0268784 C14.3093109,16.0268784 12.4809265,15.2694702 11.1057281,13.8942719 C9.73052979,12.5190735 8.97312163,10.6906891 8.97312163,8.74595645 C8.97312163,6.80103301 9.73052979,4.97264863 11.1057281,3.59745024 C12.4809265,2.2222519 14.3093109,1.46484375 16.2540436,1.46484375 C18.198967,1.46484375 20.0273514,2.2222519 21.4025498,3.59745024 C22.7777481,4.97264863 23.5351563,6.80103301 23.5351563,8.74576567 C23.5351563,10.6906891 22.7777481,12.5190735 21.4025498,13.8942719 L21.4025498,13.8942719 Z" id="Shape"></path>
                    <path d="M12.5431061,8.7945938 C12.1387481,8.7945938 11.8106842,9.12246704 11.8106842,9.52701567 L11.8106842,11.8709564 C11.8106842,12.2755051 12.1387481,12.6033783 12.5431061,12.6033783 C12.9476547,12.6033783 13.2755279,12.2755051 13.2755279,11.8709564 L13.2755279,9.52701567 C13.2755279,9.12246704 12.9476547,8.7945938 12.5431061,8.7945938 Z" id="Path"></path>
                    <path d="M14.9845123,6.35318755 C14.5801544,6.35318755 14.2520904,6.68106079 14.2520904,7.08560942 L14.2520904,11.8709564 C14.2520904,12.2755051 14.5801544,12.6033783 14.9845123,12.6033783 C15.389061,12.6033783 15.7169342,12.2755051 15.7169342,11.8709564 L15.7169342,7.08560942 C15.7169342,6.68106079 15.389061,6.35318755 14.9845123,6.35318755 Z" id="Path"></path>
                    <path d="M17.4259186,7.32975005 C17.0215606,7.32975005 16.6934967,7.65762329 16.6934967,8.06217192 L16.6934967,11.8709564 C16.6934967,12.2755051 17.0215606,12.6033783 17.4259186,12.6033783 C17.8304672,12.6033783 18.1583404,12.2755051 18.1583404,11.8709564 L18.1583404,8.06217192 C18.1583404,7.65762329 17.8304672,7.32975005 17.4259186,7.32975005 Z" id="Path"></path>
                    <path d="M19.8673248,4.8883438 C19.4629669,4.8883438 19.1349029,5.21621704 19.1349029,5.62076567 L19.1349029,11.8709564 C19.1349029,12.2755051 19.4629669,12.6033783 19.8673248,12.6033783 C20.2718735,12.6033783 20.5997467,12.2755051 20.5997467,11.8709564 L20.5997467,5.62076567 C20.5997467,5.21621704 20.2718735,4.8883438 19.8673248,4.8883438 Z" id="Path"></path>
                </g>
            </g>
        </g>
    </g>
</svg>