<?xml version="1.0" encoding="UTF-8"?>
<svg width="22px" height="19px" viewBox="0 0 22 19" version="1.1" xmlns="http://www.w3.org/2000/svg" xmlns:xlink="http://www.w3.org/1999/xlink">
    <!-- Generator: sketchtool 63.1 (101010) - https://sketch.com -->
    <title>E7EAF02D-9F0A-4D65-A38C-A4695A2AABBA@1.5x</title>
    <desc>Created with sketchtool.</desc>
    <g id="All-screens" stroke="none" stroke-width="1" fill="none" fill-rule="evenodd">
        <g id="1A-Hisab-kitaab--Home" transform="translate(-113.000000, -850.000000)" fill="#FFFFFF" stroke="#000000" stroke-width="0.7">
            <g id="Bottom-Nav.-Copy-3" transform="translate(15.000000, 813.000000)">
                <g id="Group-4" transform="translate(99.000000, 0.000000)">
                    <g id="Balance-Copy" transform="translate(0.000000, 38.000000)">
                        <path d="M2.688967,3.38302084e-06 C1.070203,-0.00248422473 0,1.36731578 0,2.80535478 L0,14.1110998 C0,15.7679538 1.343146,17.1110988 3,17.1110988 L17,17.1110988 C18.656855,17.1110988 20,15.7679548 20,14.1110998 L20,2.80535478 C20,1.36731678 18.9298,-0.00248422473 17.311033,3.38302084e-06 C15.800746,0.00233077527 13.484744,0.241337775 11.448043,1.48039578 C10.628219,1.97914878 9.37178,1.97914878 8.551956,1.48039578 C6.515256,0.241337775 4.199255,0.00233077527 2.688967,3.38302084e-06 Z M2,2.80535478 C2,2.28803678 2.3493,1.99948678 2.685891,2.00000408 C4.037686,2.00208378 5.92724,2.22464278 7.512475,3.18904478 C7.962876,3.46305278 8.470499,3.65243678 9,3.75719578 L9,15.1110998 L3,15.1110998 C2.447715,15.1110998 2,14.6633848 2,14.1110998 L2,2.80535478 Z M11,15.1110998 L17,15.1110998 C17.552284,15.1110998 18,14.6633848 18,14.1110998 L18,2.80535478 C18,2.28803578 17.6507,1.99948678 17.31411,2.00000408 C15.962316,2.00208378 14.072761,2.22464278 12.487525,3.18904478 C12.037124,3.46305278 11.529501,3.65243578 11,3.75719578 L11,15.1110998 Z" id="Shape"></path>
                    </g>
                </g>
            </g>
        </g>
    </g>
</svg>