<?xml version="1.0" encoding="UTF-8"?>
<svg width="50px" height="50px" viewBox="0 0 50 50" version="1.1" xmlns="http://www.w3.org/2000/svg" xmlns:xlink="http://www.w3.org/1999/xlink">
    <!-- Generator: sketchtool 63.1 (101010) - https://sketch.com -->
    <title>87CF5885-FD1B-4417-BC60-AB304C05D292@1.5x</title>
    <desc>Created with sketchtool.</desc>
    <g id="Profile-&amp;-Intro" stroke="none" stroke-width="1" fill="none" fill-rule="evenodd">
        <g id="6D-Bank-accounts" transform="translate(-35.000000, -242.000000)">
            <g id="Accounst" transform="translate(15.000000, 222.000000)">
                <g id="Header">
                    <g id="Group" transform="translate(20.000000, 20.000000)">
                        <circle id="Oval" stroke="#FFFFFF" stroke-width="2" fill="#060C36" cx="25" cy="25" r="24"></circle>
                        <g id="noun_Bank_3720600" transform="translate(16.000000, 16.000000)" fill="#FFFFFF" fill-rule="nonzero" stroke="#050A30" stroke-width="0.1">
                            <path d="M16.9581757,8.73046875 C17.1654511,8.73046875 17.3331757,8.56274415 17.3331757,8.35546875 L17.3331757,6.94592284 L17.6250458,6.94592284 C17.7880096,6.94592284 17.9319306,6.84082031 17.9821014,6.68591306 C18.0319061,6.53100585 17.9762421,6.36145016 17.8436737,6.26623534 L9.21867371,0.0703125 C9.0883026,-0.0234375 8.91178894,-0.0234375 8.78141786,0.0703125 L0.156051637,6.26623534 C0.023849475,6.3614502 -0.0319976625,6.53100585 0.0179901,6.68591306 C0.0677947875,6.84082027 0.212081887,6.94592284 0.374862675,6.94592284 L0.666549675,6.94592284 L0.666549675,8.35546875 C0.666549675,8.56274415 0.834457387,8.73046875 1.04154967,8.73046875 L1.97520446,8.73046875 L1.97520446,15.6800537 L0.374862675,15.6800537 C0.167770387,15.6800537 -0.000137325,15.8477783 -0.000137325,16.0550537 L-0.000137325,17.625 C-0.000137325,17.8322754 0.167770387,18 0.374862675,18 L17.6250458,18 C17.8323212,18 18.0001359,17.8322754 18.0001359,17.625 L18.0001359,16.0550537 C18.0001359,15.8477783 17.8323212,15.6800537 17.6250458,15.6800537 L16.024704,15.6800537 L16.024704,8.73046875 L16.9581757,8.73046875 Z M9.00004579,0.836791988 L16.4601288,6.19592284 L1.53959655,6.19592284 L9.00004579,0.836791988 Z M1.41654967,6.94592284 L16.5831756,6.94592284 L16.5831756,7.98046875 L15.649704,7.98046875 L13.5439911,7.98046875 L10.052536,7.98046875 L7.94700619,7.98046875 L4.45573425,7.98046875 L2.35020446,7.98046875 L1.41654967,7.98046875 L1.41654967,6.94592284 Z M10.427536,15.6800537 L10.427536,8.73046875 L13.1689911,8.73046875 L13.1689911,15.6800537 L10.427536,15.6800537 Z M4.83073425,15.6800537 L4.83073425,8.73046875 L7.57200622,8.73046875 L7.57200622,15.6800537 L4.83073425,15.6800537 Z M8.32182311,8.73046875 L9.67753601,8.73046875 L9.67753601,15.6800537 L8.32182311,15.6800537 L8.32182311,8.73046875 Z M2.72520446,8.73046875 L4.08073425,8.73046875 L4.08073425,15.6800537 L2.72520446,15.6800537 L2.72520446,8.73046875 L2.72520446,8.73046875 Z M17.2500458,17.25 L0.749862675,17.25 L0.749862675,16.4300537 L2.35020446,16.4300537 L4.45573425,16.4300537 L7.94700622,16.4300537 L10.052536,16.4300537 L13.5439911,16.4300537 L15.649704,16.4300537 L17.2500458,16.4300537 L17.2500458,17.25 Z M15.274704,15.6800537 L13.9189911,15.6800537 L13.9189911,8.73046875 L15.274704,8.73046875 L15.274704,15.6800537 Z" id="Shape"></path>
                        </g>
                    </g>
                </g>
            </g>
        </g>
    </g>
</svg>