<?xml version="1.0" encoding="UTF-8"?>
<svg width="52px" height="54px" viewBox="0 0 52 54" version="1.1" xmlns="http://www.w3.org/2000/svg" xmlns:xlink="http://www.w3.org/1999/xlink">
    <!-- Generator: sketchtool 63.1 (101010) - https://sketch.com -->
    <title>8C58914B-0443-434B-8C49-E603C4450CFD@1.5x</title>
    <desc>Created with sketchtool.</desc>
    <defs>
        <filter x="-21.9%" y="-36.8%" width="143.8%" height="173.7%" filterUnits="objectBoundingBox" id="filter-1">
            <feOffset dx="0" dy="25" in="SourceAlpha" result="shadowOffsetOuter1"></feOffset>
            <feGaussianBlur stdDeviation="7" in="shadowOffsetOuter1" result="shadowBlurOuter1"></feGaussianBlur>
            <feColorMatrix values="0 0 0 0 0   0 0 0 0 0   0 0 0 0 0  0 0 0 0.07 0" type="matrix" in="shadowBlurOuter1" result="shadowMatrixOuter1"></feColorMatrix>
            <feMerge>
                <feMergeNode in="shadowMatrixOuter1"></feMergeNode>
                <feMergeNode in="SourceGraphic"></feMergeNode>
            </feMerge>
        </filter>
    </defs>
    <g id="All-screens" stroke="none" stroke-width="1" fill="none" fill-rule="evenodd">
        <g id="1A-Hisab-kitaab--Home" transform="translate(-306.000000, -265.000000)" fill="#FFFFFF" fill-rule="nonzero">
            <g id="Options" filter="url(#filter-1)" transform="translate(15.000000, 247.000000)">
                <g id="Expense-&amp;-Income" transform="translate(180.000000, 0.000000)">
                    <g id="check-in" transform="translate(124.000000, 18.000000)">
                        <path d="M5.33143161,0.262097791 C4.98186405,-0.0874696838 4.41533438,-0.0874696838 4.06576682,0.262097791 L0.314530504,4.01302285 C-0.0344144509,4.36227914 -0.0344144509,4.92880882 0.314530504,5.27837637 L4.06576682,9.02961269 C4.41533438,9.37918025 4.98186405,9.37918025 5.33143161,9.02961269 C5.68099916,8.68004514 5.68099916,8.11320412 5.33143161,7.76363657 L3.10795802,5.54016298 L24.8097829,5.54016298 C25.3037844,5.54016298 25.7047132,5.13985676 25.7047132,4.64554398 C25.7047132,4.15154247 25.3037844,3.75061372 24.8097829,3.75061372 L3.10795802,3.75061372 L5.33143161,1.52745139 C5.68037664,1.17850636 5.68037664,0.611665346 5.33143161,0.262097791 Z" id="Path"></path>
                        <path d="M20.4263367,16.2120893 C20.7752818,16.5616569 21.3421228,16.5616569 21.6916903,16.2120893 L25.4426153,12.4611643 C25.7921829,12.1115968 25.7921829,11.545067 25.4426153,11.1958108 L21.6916903,7.4445745 C21.3421228,7.09531821 20.7752818,7.09531821 20.4263367,7.4445745 C20.0767693,7.79414206 20.0767693,8.36067181 20.4263367,8.71023937 L22.6491879,10.9337129 L0.947674156,10.9337129 C0.453361461,10.9337129 0.0527439728,11.3340192 0.0527439728,11.8286432 C0.0527439728,12.3226447 0.453361461,12.7232621 0.947674156,12.7232621 L22.6491879,12.7232621 L20.4263367,14.9464245 C20.0767693,15.2959921 20.0767693,15.8628331 20.4263367,16.2120893 Z" id="Path"></path>
                    </g>
                </g>
            </g>
        </g>
    </g>
</svg>