<?xml version="1.0" encoding="UTF-8"?>
<svg width="159px" height="159px" viewBox="0 0 159 159" version="1.1" xmlns="http://www.w3.org/2000/svg" xmlns:xlink="http://www.w3.org/1999/xlink">
    <!-- Generator: sketchtool 63.1 (101010) - https://sketch.com -->
    <title>C1726B1C-52B8-478B-9E61-6EBC759F9006@1.5x</title>
    <desc>Created with sketchtool.</desc>
    <g id="All-screens" stroke="none" stroke-width="1" fill="none" fill-rule="evenodd">
        <g id="1D-Create-asset-11" transform="translate(-108.000000, -276.000000)" fill-rule="nonzero">
            <g id="Group-5" transform="translate(97.000000, 276.000000)">
                <g id="Group-4-Copy" transform="translate(-0.000000, 0.000000)">
                    <g id="checked" transform="translate(11.150000, 0.000000)">
                        <path d="M158.449513,79.2247566 C158.449513,122.978795 122.978795,158.449513 79.2247566,158.449513 C35.4707185,158.449513 0,122.978795 0,79.2247566 C0,35.4707185 35.4707185,0 79.2247566,0 C122.978795,0 158.449513,35.4707185 158.449513,79.2247566" id="Path" fill="#6B648C"></path>
                        <g id="Group" transform="translate(14.701501, 14.701501)" fill="#F4F3F6">
                            <path d="M57.1765114,92.6934275 L57.1438414,92.6934275 C54.8856046,92.6854141 52.7361649,91.7031566 51.2481388,90.0027754 L35.5739345,72.0894431 C34.137379,70.4488542 33.4272687,68.3456457 33.5715099,66.1690838 C33.715751,63.9952958 34.7004742,62.0064323 36.3410631,60.5726507 C39.7282643,57.6070774 44.8950561,57.9525781 47.8578555,61.3397793 L57.2008598,72.1002303 L90.9952038,34.0563204 C93.9826598,30.6879198 99.1519172,30.3886503 102.517544,33.3788801 C104.147346,34.8262229 105.115734,36.823408 105.24364,38.9999698 C105.371546,41.1737579 104.642327,43.2714186 103.194984,44.9012202 L63.0642007,90.0486983 C61.5703186,91.7302788 59.4236529,92.6934275 57.1765114,92.6934275" id="Path" stroke="#6B648C" stroke-width="11"></path>
                            <path d="M50.029486,7.42502864 C48.8160728,7.42502864 47.708683,6.60889498 47.3958523,5.37914677 C47.0232294,3.92070853 47.9019292,2.4379219 49.3575935,2.06807281 C54.6057521,0.729527325 59.982125,0.0465393435 65.3363069,0.0437654753 L65.3390808,0.0437654753 C66.8409763,0.0437654753 68.059942,1.25995256 68.059942,2.76184806 C68.0627111,4.26374356 66.846524,5.48270451 65.3418547,5.48517017 C60.4391968,5.48794404 55.5146562,6.11360541 50.7044606,7.34057976 C50.4782363,7.39759816 50.2526283,7.42502864 50.029486,7.42502864" id="Path"></path>
                            <path d="M9.68727222,39.4148172 C9.26841813,39.4148172 8.84124243,39.3168072 8.44396287,39.1127738 C7.10819125,38.4245463 6.58300555,36.7839574 7.27123306,35.4478776 C13.6813342,23.0006065 24.2756613,12.7379108 37.1014112,6.54817809 C38.4535178,5.89786011 40.0833195,6.46372922 40.7364113,7.81860971 C41.3867293,9.17071633 40.8208602,10.7977441 39.4659797,11.450836 C27.6989228,17.1289441 17.9805216,26.5345146 12.1091673,37.9397358 C11.6243568,38.8760704 10.6747693,39.4148172 9.68727222,39.4148172" id="Path"></path>
                            <path d="M2.7633891,68.0608619 L2.7633891,68.0608619 C1.25871973,68.0608619 0.042532645,66.8419009 0.042532645,65.3400054 C0.0453065132,59.3789628 0.850652901,53.4666169 2.4339152,47.7693999 C2.83643429,46.3220572 4.33832979,45.478493 5.78598076,45.8785465 C7.23332353,46.2810655 8.07966152,47.7801872 7.67683422,49.2278381 C6.22394372,54.4516483 5.48671121,59.8714785 5.48393734,65.3400054 C5.48393734,66.8446748 4.26497639,68.0608619 2.7633891,68.0608619" id="Path"></path>
                            <path d="M65.3400054,130.637478 C63.8381099,130.637478 62.619149,129.421291 62.619149,127.916622 C62.619149,126.414726 63.8353361,125.195765 65.3400054,125.195765 C70.5773767,125.192991 75.8202957,124.482881 80.9217475,123.087317 C82.358303,122.687264 83.865438,123.544389 84.2627176,124.994506 C84.6599971,126.441849 83.8056457,127.938196 82.3555291,128.335476 C76.7886839,129.859254 71.0643447,130.634704 65.3400054,130.637478 Z" id="Path"></path>
                            <path d="M94.2585056,123.455934 C93.2790219,123.455934 92.3322082,122.925508 91.8452403,121.997495 C91.1486912,120.666963 91.6603157,119.0236 92.9933135,118.324586 C104.692565,112.189406 114.155154,102.334777 119.634776,90.5732676 C120.268759,89.2100655 121.890239,88.6170742 123.250667,89.2562967 C124.611096,89.8902796 125.201313,91.5062119 124.567638,92.869414 C118.587487,105.708417 108.270546,116.458081 95.5184581,123.145569 C95.1153226,123.35515 94.6829074,123.455934 94.2585056,123.455934" id="Path"></path>
                            <path d="M126.266787,82.4094654 C126.059979,82.4094654 125.853172,82.3875827 125.643591,82.3385777 C124.179913,81.993077 123.271009,80.5293992 123.614044,79.0654133 C124.661642,74.6142795 125.192067,69.9945562 125.194841,65.3366151 C125.197615,63.8347196 126.416576,62.6185326 127.915697,62.6185326 L127.918471,62.6185326 C129.42314,62.6213064 130.639327,63.8402674 130.636558,65.3418547 C130.63378,70.4158759 130.054349,75.4519877 128.91429,80.3111883 C128.617486,81.5634356 127.502083,82.4094654 126.266787,82.4094654" id="Path"></path>
                        </g>
                    </g>
                </g>
            </g>
        </g>
    </g>
</svg>