<?xml version="1.0" encoding="UTF-8"?>
<svg width="20px" height="20px" viewBox="0 0 20 20" version="1.1" xmlns="http://www.w3.org/2000/svg" xmlns:xlink="http://www.w3.org/1999/xlink">
    <!-- Generator: sketchtool 63.1 (101010) - https://sketch.com -->
    <title>14AE43D6-A7DF-453D-84F9-E6930AA04969@1.5x</title>
    <desc>Created with sketchtool.</desc>
    <g id="Profile-&amp;-Intro" stroke="none" stroke-width="1" fill="none" fill-rule="evenodd">
        <g id="6A-Profile" transform="translate(-24.000000, -413.000000)" fill="#050A30" stroke="#FFFFFF" stroke-width="0.8">
            <g id="Shop-details" transform="translate(0.000000, 393.000000)">
                <path d="M34.5006311,21 C34.7742366,21.003969 35.0328448,21.125791 35.2100625,21.3342823 L43.2741676,30.8214616 C43.513663,31.1032213 43.5676185,31.4984639 43.4124034,31.8341061 C43.2571884,32.1697474 42.9210946,32.3846149 42.5513014,32.3846149 L41.1282244,32.3846149 L41.1282244,38.0769231 C41.1282244,38.6008858 40.7034681,39.0256411 40.1795064,39.0256411 L35.4359153,39.0256411 L35.4359153,34.282051 L33.5384792,34.282051 L33.5384792,39.0256411 L28.79489,39.0256411 C28.2709273,39.0256411 27.846172,38.6008858 27.846172,38.0769231 L27.846172,32.3846149 L25.948735,32.3846149 C25.5740768,32.3846149 25.2345069,32.1641234 25.0820811,31.8218724 C24.9296563,31.4796214 24.9929253,31.0797197 25.2435586,30.8012387 L33.7820208,21.3140584 C33.9650712,21.1106685 34.2270256,20.9962189 34.5006311,21 Z M28.0789514,30.4871789 L29.7436081,30.4871789 L29.7436081,37.1282051 L31.6410441,37.1282051 L31.6410441,32.3846149 L37.3333513,32.3846149 L37.3333513,37.1282051 L39.2307874,37.1282051 L39.2307874,30.4871789 L40.4997547,30.4871789 L34.4667932,23.3895783 L28.0789514,30.4871789 Z" id="Shape"></path>
            </g>
        </g>
    </g>
</svg>