<?xml version="1.0" encoding="UTF-8"?>
<svg width="14px" height="15px" viewBox="0 0 14 15" version="1.1" xmlns="http://www.w3.org/2000/svg" xmlns:xlink="http://www.w3.org/1999/xlink">
    <!-- Generator: sketchtool 63.1 (101010) - https://sketch.com -->
    <title>D8FE5809-7811-4185-BF7C-B9A31FF8BC59@1.5x</title>
    <desc>Created with sketchtool.</desc>
    <g id="All-screens" stroke="none" stroke-width="1" fill="none" fill-rule="evenodd">
        <g id="1E-Asset-details" transform="translate(-95.000000, -413.000000)" fill="#3A4856" fill-rule="nonzero">
            <g id="Group" transform="translate(20.000000, 173.000000)">
                <g id="Group-9" transform="translate(15.000000, 229.000000)">
                    <g id="Group-7" transform="translate(60.000000, 11.000000)">
                        <g id="contact-book">
                            <path d="M11.3335498,0 L2.97838409,0 C2.00216359,0.000441978718 1.21080071,0.791694371 1.21046922,1.76791487 L1.21046922,2.53165409 L0.379549231,2.53165409 C0.184194638,2.53165409 0.0259662567,2.68999296 0.0259662567,2.88523707 C0.0259662567,3.08048117 0.184194638,3.23882004 0.379549231,3.23882004 L1.20682287,3.23882004 L1.20682287,5.55832435 L0.379549231,5.55832435 C0.184194638,5.55832435 0.0259662567,5.71655273 0.0259662567,5.91190733 C0.0259662567,6.10715143 0.184194638,6.2654903 0.379549231,6.2654903 L1.20682287,6.2654903 L1.20682287,8.58499461 L0.379549231,8.58499461 C0.184194638,8.58499461 0.0259662567,8.74333348 0.0259662567,8.93857759 C0.0259662567,9.13393218 0.184194638,9.29216056 0.379549231,9.29216056 L1.20682287,9.29216056 L1.20682287,11.6116649 L0.379549231,11.6116649 C0.184194638,11.6116649 0.0259662567,11.7700037 0.0259662567,11.9652478 C0.0259662567,12.160492 0.184194638,12.3188308 0.379549231,12.3188308 L1.20682287,12.3188308 L1.20682287,13.08257 C1.20726488,14.0587905 1.99851727,14.8500429 2.97473775,14.8504849 L11.3299034,14.8504849 C12.3061239,14.8500429 13.0975973,14.0587905 13.0978203,13.08257 L13.0978203,1.76791487 C13.0992547,0.792357353 12.3091073,0.000662968077 11.3335498,0 Z M12.3942987,13.08257 C12.3925308,13.6676394 11.9186191,14.1416615 11.3335498,14.143319 L2.97838409,14.143319 C2.39331476,14.1416615 1.91929257,13.6676394 1.91763517,13.08257 L1.91763517,12.3188308 L2.74490881,12.3188308 C2.94026341,12.3188308 3.09849179,12.160492 3.09849179,11.9652478 C3.09849179,11.7700037 2.94026341,11.6116649 2.74490881,11.6116649 L1.91763517,11.6116649 L1.91763517,9.29216056 L2.74490881,9.29216056 C2.94026341,9.29216056 3.09849179,9.13393218 3.09849179,8.93857759 C3.09849179,8.74333348 2.94026341,8.58499461 2.74490881,8.58499461 L1.91763517,8.58499461 L1.91763517,6.2654903 L2.74490881,6.2654903 C2.94026341,6.2654903 3.09849179,6.10715143 3.09849179,5.91190733 C3.09849179,5.71655273 2.94026341,5.55832435 2.74490881,5.55832435 L1.91763517,5.55832435 L1.91763517,3.23882004 L2.74490881,3.23882004 C2.94026341,3.23882004 3.09849179,3.08048117 3.09849179,2.88523707 C3.09849179,2.68999296 2.94026341,2.53165409 2.74490881,2.53165409 L1.91763517,2.53165409 L1.91763517,1.76791487 C1.91929257,1.18284554 2.39331476,0.708823376 2.97838409,0.707165948 L11.3335498,0.707165948 C11.9186191,0.708823376 12.3925308,1.18284554 12.3942987,1.76791487 L12.3942987,13.08257 Z" id="Shape"></path>
                            <path d="M7.15419902,7.32270339 C8.10124892,7.32270339 8.86907644,6.55498636 8.86907644,5.60782597 C8.86907644,4.66066558 8.10124892,3.89294855 7.15419902,3.89294855 C6.20703862,3.89294855 5.43932159,4.66066558 5.43932159,5.60782597 C5.44020555,6.55454438 6.20737009,7.32181944 7.15419902,7.32270339 L7.15419902,7.32270339 Z M7.15419902,4.59657866 C7.71065022,4.59657866 8.16191049,5.04783893 8.16191049,5.60429014 C8.16191049,6.16074135 7.71065022,6.61200162 7.15419902,6.61200162 C6.59763732,6.61200162 6.14648754,6.16074135 6.14648754,5.60429014 C6.14748198,5.04828091 6.59796879,4.59757311 7.15419902,4.59657866 L7.15419902,4.59657866 Z" id="Shape"></path>
                            <path d="M7.15419902,7.89197198 C5.68329384,7.89197198 4.53050283,9.08354661 4.53050283,10.6074892 C4.53105533,10.8025123 4.6890627,10.9605197 4.88408581,10.9610722 L9.42420171,10.9610722 C9.61922481,10.9605197 9.77723222,10.8025123 9.77778468,10.6074892 C9.77778468,9.08354661 8.62499367,7.89197198 7.15419902,7.89197198 Z M5.26595542,10.2539063 C5.41810661,9.28862473 6.17831001,8.59913793 7.15419902,8.59913793 C8.12997751,8.59913793 8.89382725,9.28862473 9.0423321,10.2539063 L5.26595542,10.2539063 Z" id="Shape"></path>
                        </g>
                    </g>
                </g>
            </g>
        </g>
    </g>
</svg>