<?xml version="1.0" encoding="UTF-8"?>
<svg width="20px" height="20px" viewBox="0 0 20 20" version="1.1" xmlns="http://www.w3.org/2000/svg" xmlns:xlink="http://www.w3.org/1999/xlink">
    <!-- Generator: sketchtool 63.1 (101010) - https://sketch.com -->
    <title>9A7A8861-C84B-4198-8486-DF3F11C8938A@1.5x</title>
    <desc>Created with sketchtool.</desc>
    <g id="Profile-&amp;-Intro" stroke="none" stroke-width="1" fill="none" fill-rule="evenodd">
        <g id="6D-Bank-accounts" transform="translate(-322.000000, -315.000000)" fill="#3A4856" fill-rule="nonzero">
            <g id="Accounst" transform="translate(15.000000, 222.000000)">
                <g id="Group-3" transform="translate(20.000000, 85.000000)">
                    <g id="1">
                        <g id="noun_edit_857941" transform="translate(287.000000, 8.000000)">
                            <path d="M17.607,16.746 C17.607,17.627 16.891,18.37 16.01,18.37 L3.231,18.37 C2.35,18.37 1.634,17.627 1.634,16.746 L1.634,3.967 C1.634,3.086 2.35,2.396 3.231,2.396 L10.685,2.396 L10.685,1.332 L3.231,1.332 C1.763,1.332 0.569,2.5 0.569,3.968 L0.569,16.746 C0.569,18.214 1.763,19.434 3.231,19.434 L16.009,19.434 C17.477,19.434 18.671,18.213 18.671,16.746 L18.671,9.318 L17.606,9.318 L17.606,16.746 L17.607,16.746 Z" id="Path"></path>
                            <path d="M18.807,1.17 C18.003,0.365 16.6,0.365 15.795,1.17 L8.652,8.313 C8.584,8.381 8.535,8.467 8.512,8.56 L7.76,11.571 C7.715,11.752 7.768,11.944 7.9,12.077 C8.001,12.178 8.137,12.233 8.276,12.233 C8.319,12.233 8.362,12.228 8.405,12.217 L11.417,11.464 C11.511,11.441 11.596,11.392 11.664,11.324 L18.807,4.181 C19.209,3.779 19.431,3.244 19.431,2.675 C19.431,2.106 19.21,1.572 18.807,1.17 Z M11.016,10.467 L9.008,10.969 L9.51,8.961 L15.419,3.052 L16.925,4.558 L11.016,10.467 Z M18.054,3.428 L17.678,3.804 L16.172,2.298 L16.548,1.922 C16.95,1.52 17.652,1.52 18.054,1.922 C18.255,2.123 18.366,2.39 18.366,2.675 C18.366,2.96 18.255,3.227 18.054,3.428 Z" id="Shape"></path>
                        </g>
                    </g>
                </g>
            </g>
        </g>
    </g>
</svg>