<?xml version="1.0" encoding="UTF-8"?>
<svg width="37px" height="22px" viewBox="0 0 37 22" version="1.1" xmlns="http://www.w3.org/2000/svg" xmlns:xlink="http://www.w3.org/1999/xlink">
    <!-- Generator: sketchtool 63.1 (101010) - https://sketch.com -->
    <title>0E681163-733B-44BF-ABBA-7F7CD794B9D8@1.5x</title>
    <desc>Created with sketchtool.</desc>
    <g id="All-screens" stroke="none" stroke-width="1" fill="none" fill-rule="evenodd">
        <g id="1B-Hisab-kitaab-Menu" transform="translate(-171.000000, -521.000000)" fill="#FFFFFF" fill-rule="nonzero">
            <g id="Group-13" transform="translate(16.000000, 356.000000)">
                <g id="Group-16" transform="translate(123.000000, 146.000000)">
                    <g id="Group-2" transform="translate(32.000000, 19.000000)">
                        <path d="M33.0903459,14.8024858 C33.3488031,15.0658381 33.7686518,15.0658381 34.0275701,14.8024858 L36.8058113,11.9766665 C37.0647296,11.7133142 37.0647296,11.2865099 36.8058113,11.0233922 L34.0275701,8.19733836 C33.7686518,7.93422055 33.3488031,7.93422055 33.0903459,8.19733836 C32.8314277,8.46069066 32.8314277,8.88749491 33.0903459,9.15084721 L34.7367709,10.8259366 L22.6628583,10.8259366 C22.29673,10.8259366 22,11.1275137 22,11.5001466 C22,11.8723105 22.29673,12.1741221 22.6628583,12.1741221 L34.7367709,12.1741221 L33.0903459,13.848977 C32.8314277,14.1123293 32.8314277,14.539368 33.0903459,14.8024858 Z" id="Path-Copy" transform="translate(29.500000, 11.500000) scale(-1, 1) translate(-29.500000, -11.500000) "></path>
                        <g id="rupee">
                            <path d="M7.48730469,7.54519531 L10.4567187,7.54519531 C11.2426953,7.54519531 11.9120312,8.0525 12.155625,8.75675781 L7.48730469,8.75675781 L7.48730469,9.92863281 L12.155625,9.92863281 C11.9120312,10.6328516 11.2427344,11.1401953 10.4567187,11.1401953 L7.48730469,11.1401953 L7.48730469,12.4241406 L12.0962891,17.0330859 L12.9249219,16.2044531 L9.0325,12.3120703 L10.4566797,12.3120703 C11.8934375,12.3120703 13.0948828,11.28625 13.3676953,9.92863281 L14.5126562,9.92863281 L14.5126562,8.75675781 L13.3675,8.75675781 C13.2773828,8.3084375 13.0864453,7.89617188 12.8187109,7.54519531 L14.5126562,7.54519531 L14.5126562,6.37332031 L7.48722656,6.37332031 L7.48722656,7.54519531 L7.48730469,7.54519531 Z" id="Path"></path>
                            <path d="M18.7782031,3.22179688 C16.7005352,1.14421484 13.9382031,0 11,0 C8.06179688,0 5.29946484,1.14421484 3.22179688,3.22179688 C1.14421484,5.29946484 0,8.06179688 0,11 C0,13.9382031 1.14421484,16.7005352 3.22179688,18.7782031 C5.29946484,20.8557852 8.06179688,22 11,22 C13.9382031,22 16.7005352,20.8557852 18.7782031,18.7782031 C20.8557852,16.7005352 22,13.9382031 22,11 C22,8.06179687 20.8557852,5.29946484 18.7782031,3.22179688 Z M17.8666641,17.8666641 C16.0325,19.7008281 13.5938945,20.7109375 11,20.7109375 C8.40610547,20.7109375 5.9675,19.7008281 4.13333594,17.8666641 C2.29917188,16.0325 1.2890625,13.5938945 1.2890625,11 C1.2890625,8.40610547 2.29917188,5.9675 4.13333594,4.13333594 C5.9675,2.29917188 8.40610547,1.2890625 11,1.2890625 C13.5938945,1.2890625 16.0325,2.29917188 17.8666641,4.13333594 C19.7008281,5.9675 20.7109375,8.40610547 20.7109375,11 C20.7109375,13.5938945 19.7008281,16.0325 17.8666641,17.8666641 Z" id="Shape"></path>
                        </g>
                    </g>
                </g>
            </g>
        </g>
    </g>
</svg>