<?xml version="1.0" encoding="UTF-8"?>
<svg width="40px" height="40px" viewBox="0 0 40 40" version="1.1" xmlns="http://www.w3.org/2000/svg" xmlns:xlink="http://www.w3.org/1999/xlink">
    <!-- Generator: sketchtool 63.1 (101010) - https://sketch.com -->
    <title>34586B40-45B3-4DA1-9DCB-37E52877C315@1.5x</title>
    <desc>Created with sketchtool.</desc>
    <g id="All-screens" stroke="none" stroke-width="1" fill="none" fill-rule="evenodd">
        <g id="1D-Create-asset-6" transform="translate(-297.000000, -515.000000)">
            <g id="Group-7" transform="translate(39.000000, 496.000000)">
                <g id="Group-3" transform="translate(258.000000, 19.000000)">
                    <rect id="Rectangle-Copy-5" fill="#635C83" x="0" y="0" width="40" height="40" rx="10"></rect>
                    <g id="contact-book" transform="translate(12.000000, 10.000000)" fill="#F2EFFC" fill-rule="nonzero">
                        <path d="M14.6796454,0 L3.85771654,0 C2.59327856,0.000572467672 1.56827521,1.02543271 1.56784585,2.28987069 L1.56784585,3.27909483 L0.491606623,3.27909483 C0.238575912,3.27909483 0.0336324849,3.48418136 0.0336324849,3.73706897 C0.0336324849,3.98995657 0.238575912,4.1950431 0.491606623,4.1950431 L1.56312296,4.1950431 L1.56312296,7.19935345 L0.491606623,7.19935345 C0.238575912,7.19935345 0.0336324849,7.40429688 0.0336324849,7.65732759 C0.0336324849,7.91021519 0.238575912,8.11530172 0.491606623,8.11530172 L1.56312296,8.11530172 L1.56312296,11.1196121 L0.491606623,11.1196121 C0.238575912,11.1196121 0.0336324849,11.3246986 0.0336324849,11.5775862 C0.0336324849,11.8306169 0.238575912,12.0355603 0.491606623,12.0355603 L1.56312296,12.0355603 L1.56312296,15.0398707 L0.491606623,15.0398707 C0.238575912,15.0398707 0.0336324849,15.2449572 0.0336324849,15.4978448 C0.0336324849,15.7507324 0.238575912,15.955819 0.491606623,15.955819 L1.56312296,15.955819 L1.56312296,16.9450431 C1.56369547,18.2094811 2.58855571,19.2343413 3.85299365,19.2349138 L14.6749225,19.2349138 C15.9393605,19.2343413 16.964507,18.2094811 16.9647958,16.9450431 L16.9647958,2.28987069 C16.9666538,1.02629143 15.9432247,0.000858701509 14.6796454,0 Z M16.0535678,16.9450431 C16.051278,17.7028472 15.4374495,18.3168188 14.6796454,18.3189655 L3.85771654,18.3189655 C3.09991245,18.3168188 2.48594085,17.7028472 2.48379412,16.9450431 L2.48379412,15.955819 L3.55531046,15.955819 C3.80834117,15.955819 4.0132846,15.7507324 4.0132846,15.4978448 C4.0132846,15.2449572 3.80834117,15.0398707 3.55531046,15.0398707 L2.48379412,15.0398707 L2.48379412,12.0355603 L3.55531046,12.0355603 C3.80834117,12.0355603 4.0132846,11.8306169 4.0132846,11.5775862 C4.0132846,11.3246986 3.80834117,11.1196121 3.55531046,11.1196121 L2.48379412,11.1196121 L2.48379412,8.11530172 L3.55531046,8.11530172 C3.80834117,8.11530172 4.0132846,7.91021519 4.0132846,7.65732759 C4.0132846,7.40429688 3.80834117,7.19935345 3.55531046,7.19935345 L2.48379412,7.19935345 L2.48379412,4.1950431 L3.55531046,4.1950431 C3.80834117,4.1950431 4.0132846,3.98995657 4.0132846,3.73706897 C4.0132846,3.48418136 3.80834117,3.27909483 3.55531046,3.27909483 L2.48379412,3.27909483 L2.48379412,2.28987069 C2.48594085,1.5320666 3.09991245,0.918095039 3.85771654,0.915948276 L14.6796454,0.915948276 C15.4374495,0.918095039 16.051278,1.5320666 16.0535678,2.28987069 L16.0535678,16.9450431 Z" id="Shape"></path>
                        <path d="M9.26639111,9.4846444 C10.4930462,9.4846444 11.4875657,8.49026805 11.4875657,7.26346983 C11.4875657,6.03667161 10.4930462,5.04229526 9.26639111,5.04229526 C8.03959288,5.04229526 7.04521654,6.03667161 7.04521654,7.26346983 C7.04636147,8.48969558 8.04002221,9.48349946 9.26639111,9.4846444 L9.26639111,9.4846444 Z M9.26639111,5.95366379 C9.98712791,5.95366379 10.5716174,6.53815329 10.5716174,7.25889009 C10.5716174,7.97962689 9.98712791,8.56411638 9.26639111,8.56411638 C8.5455112,8.56411638 7.96116481,7.97962689 7.96116481,7.25889009 C7.96245286,6.53872575 8.54594052,5.95495184 9.26639111,5.95366379 L9.26639111,5.95366379 Z" id="Shape"></path>
                        <path d="M9.26639111,10.2219828 C7.36121869,10.2219828 5.86807986,11.7653556 5.86807986,13.7392241 C5.86879547,13.9918255 6.07345264,14.1964827 6.326054,14.1971983 L12.2065851,14.1971983 C12.4591864,14.1964827 12.6638436,13.9918255 12.6645592,13.7392241 C12.6645592,11.7653556 11.1714204,10.2219828 9.26639111,10.2219828 Z M6.82066606,13.28125 C7.01773809,12.0309806 8.00238248,11.137931 9.26639111,11.137931 C10.5302566,11.137931 11.5196239,12.0309806 11.711973,13.28125 L6.82066606,13.28125 Z" id="Shape"></path>
                    </g>
                </g>
            </g>
        </g>
    </g>
</svg>