<?xml version="1.0" encoding="UTF-8"?>
<svg width="19px" height="17px" viewBox="0 0 19 17" version="1.1" xmlns="http://www.w3.org/2000/svg" xmlns:xlink="http://www.w3.org/1999/xlink">
    <!-- Generator: sketchtool 63.1 (101010) - https://sketch.com -->
    <title>B5C7C331-C856-4F21-AEA0-B8D9F335921C@1.5x</title>
    <desc>Created with sketchtool.</desc>
    <g id="All-screens" stroke="none" stroke-width="1" fill="none" fill-rule="evenodd">
        <g id="1B-Hisab-kitaab-Menu" transform="translate(-180.000000, -614.000000)" fill="#FFFFFF" fill-rule="nonzero" stroke="#FFFFFF" stroke-width="0.3">
            <g id="Group-13" transform="translate(16.000000, 356.000000)">
                <g id="Group-12-Copy-2" transform="translate(146.000000, 259.000000)">
                    <g id="Group-18">
                        <g id="Group-17" transform="translate(19.000000, 0.000000)">
                            <path d="M16.8859754,9.47703503 L15.8239942,8.19132184 C15.6652418,7.99910686 15.3888517,7.95397139 15.1770521,8.08548688 L13.7749983,8.95706891 C13.5414091,9.10233258 13.4698149,9.40946149 13.6149488,9.64305065 C13.7602125,9.87663985 14.0672117,9.94823409 14.3009306,9.80310011 L14.7465788,9.52606153 C14.3766752,10.9028239 13.580319,12.1401591 12.4401289,13.0837245 C10.8318525,14.4145732 8.70335063,14.8363566 6.74670084,14.2119822 C5.53050669,13.8239207 4.5034147,13.1576533 3.69395884,12.2315974 C2.94170054,11.3710399 2.41641674,10.313209 2.17504556,9.17275953 C2.11810742,8.90363263 1.85390912,8.7316508 1.5846525,8.78858898 C1.31552563,8.84552716 1.1435438,9.10985518 1.20048198,9.37898205 C1.78451977,12.1382136 3.74454174,14.2996592 6.44385205,15.160995 C7.13982066,15.3830409 7.85381754,15.4917293 8.56366406,15.4917293 C10.18076,15.4917293 11.7748991,14.9270167 13.0751387,13.8511576 C14.4116941,12.7450785 15.3347669,11.2832332 15.7421538,9.65640973 L16.1178938,10.1113963 C16.2163359,10.23072 16.3587461,10.2923274 16.502194,10.2923274 C16.6138655,10.2923274 16.7263151,10.2549739 16.8190504,10.1783213 C17.0311094,10.003097 17.0610701,9.68922375 16.8859754,9.47703503 L16.8859754,9.47703503 Z" id="Path"></path>
                            <path d="M1.56026899,7.51792096 C1.65041026,7.51792096 1.74145947,7.49340772 1.82291088,7.44282482 L3.2249647,6.57124279 C3.45855386,6.42597912 3.5301481,6.11885021 3.38501416,5.88526105 C3.23975048,5.65167188 2.93262158,5.58007764 2.69903238,5.72521163 L2.23950634,6.01094005 C2.55765972,4.76361798 3.22003613,3.64145612 4.18863354,2.7230525 C5.0493208,1.90672253 6.11000498,1.35212658 7.2559019,1.1191859 C8.40231762,0.886115539 9.58375225,0.985595223 10.6724516,1.40673018 C11.7739912,1.8329234 12.703549,2.49932051 13.4354444,3.38737438 C14.1194807,4.21745251 14.6014448,5.22275494 14.8291975,6.29446363 C14.8863951,6.56359053 15.1509825,6.73531291 15.4199796,6.67811535 C15.6889769,6.62091779 15.8606993,6.35646007 15.8035017,6.0874629 C15.5426756,4.85959576 14.989636,3.70695446 14.2041746,2.75392101 C13.3621641,1.73214674 12.2948652,0.966269942 11.0318495,0.47769117 C9.76520214,-0.0123143396 8.39090405,-0.128006478 7.05746137,0.142936235 C5.72855815,0.413230391 4.49952373,1.05537365 3.50317056,2.00023604 C2.78774701,2.67869518 2.2135664,3.46389722 1.79645214,4.33418224 C1.56104717,4.82535504 1.37907847,5.33689069 1.25119458,5.86373088 L0.882069193,5.41678571 C0.70684488,5.20472668 0.392971623,5.17476604 0.180912593,5.34999035 C-0.031146436,5.52508497 -0.0611070766,5.83908795 0.113987544,6.05114698 L1.17596875,7.33686017 C1.27363262,7.45527599 1.41591319,7.51792096 1.56026899,7.51792096 Z" id="Path"></path>
                        </g>
                    </g>
                </g>
            </g>
        </g>
    </g>
</svg>