<?xml version="1.0" encoding="UTF-8"?>
<svg width="17px" height="17px" viewBox="0 0 17 17" version="1.1" xmlns="http://www.w3.org/2000/svg" xmlns:xlink="http://www.w3.org/1999/xlink">
    <!-- Generator: sketchtool 63.1 (101010) - https://sketch.com -->
    <title>5D1F2954-D4F7-4932-B9F2-50C4BEF65C22@1.5x</title>
    <desc>Created with sketchtool.</desc>
    <g id="Profile-&amp;-Intro" stroke="none" stroke-width="1" fill="none" fill-rule="evenodd">
        <g id="6A-Profile" transform="translate(-106.000000, -245.000000)" fill="#FFFFFF" stroke="#192054" stroke-width="0.8">
            <g id="Group" transform="translate(82.000000, 238.000000)">
                <path d="M32.959991,8 C33.1892281,8.00332537 33.4058999,8.10539252 33.5543797,8.28007441 L40.3107944,16.228795 C40.5114527,16.464864 40.5566587,16.7960133 40.4266136,17.0772272 C40.2965686,17.3584402 40.0149764,17.5384644 39.7051495,17.5384644 L38.5128413,17.5384644 L38.5128413,22.3076973 C38.5128413,22.7466932 38.1569643,23.1025694 37.7179692,23.1025694 L33.7436077,23.1025694 L33.7436077,19.1282087 L32.1538634,19.1282087 L32.1538634,23.1025694 L28.1795036,23.1025694 C27.7405076,23.1025694 27.3846314,22.7466932 27.3846314,22.3076973 L27.3846314,17.5384644 L25.7948864,17.5384644 C25.4809834,17.5384644 25.1964788,17.3537282 25.0687707,17.0669773 C24.9410633,16.7802264 24.9940726,16.4451735 25.2040627,16.2118515 L32.3579119,8.26313013 C32.5112785,8.09272226 32.7307538,7.99683206 32.959991,8 Z M27.5796629,15.9487202 L28.9743757,15.9487202 L28.9743757,21.5128251 L30.56412,21.5128251 L30.56412,17.5384644 L35.333352,17.5384644 L35.333352,21.5128251 L36.9230963,21.5128251 L36.9230963,15.9487202 L37.9862854,15.9487202 L32.9316403,10.0020798 L27.5796629,15.9487202 Z" id="Shape"></path>
            </g>
        </g>
    </g>
</svg>