<?xml version="1.0" encoding="UTF-8"?>
<svg width="20px" height="20px" viewBox="0 0 20 20" version="1.1" xmlns="http://www.w3.org/2000/svg" xmlns:xlink="http://www.w3.org/1999/xlink">
    <!-- Generator: sketchtool 63.1 (101010) - https://sketch.com -->
    <title>5663811B-EE9E-46EA-A072-4241C419F879@1.5x</title>
    <desc>Created with sketchtool.</desc>
    <g id="Profile-&amp;-Intro" stroke="none" stroke-width="1" fill="none" fill-rule="evenodd">
        <g id="6A-Profile" transform="translate(-25.000000, -638.000000)" fill="#050A30" stroke="#FFFFFF" stroke-width="0.7">
            <g id="Help" transform="translate(0.000000, 618.000000)">
                <path d="M35,21 C39.9705623,21 44,25.0294368 44,30 C44,34.9705623 39.9705623,39 35,39 C30.0294368,39 26,34.9705623 26,30 C26,25.0294368 30.0294368,21 35,21 Z M35,22.8 C31.0235498,22.8 27.8,26.0235498 27.8,30 C27.8,33.9764502 31.0235498,37.2 35,37.2 C38.9764502,37.2 42.2,33.9764502 42.2,30 C42.2,26.0235498 38.9764502,22.8 35,22.8 Z M35,33.6 C35.4970556,33.6 35.9,34.0029444 35.9,34.5 C35.9,34.9970556 35.4970556,35.4 35,35.4 C34.5029444,35.4 34.1,34.9970556 34.1,34.5 C34.1,34.0029444 34.5029444,33.6 35,33.6 Z M35.0000009,24.6 C36.8144261,24.6 38.0075768,25.8266766 38.4413165,27.1278948 C38.8524797,28.3613844 38.6691866,30.0716373 37.2024926,30.8049843 L36.6716666,31.0598313 C36.4037027,31.189274 36.1383249,31.3275797 35.9043893,31.5010029 L35.9007289,31.6391015 L35.9007289,31.6391015 L35.9000009,31.8 C35.9000009,32.2970556 35.4970574,32.7 35.0000009,32.7 C34.5029444,32.7 34.1000009,32.2970556 34.1000009,31.8 L34.1003426,31.5263149 C34.1085426,31.1577682 34.172282,30.679927 34.5886046,30.2636037 C34.7949008,30.0573084 35.057132,29.8949484 35.3222981,29.7476337 L35.6775321,29.557428 L35.6775321,29.557428 L36.3975092,29.1950157 L36.3975092,29.1950157 C36.7308152,29.0283627 36.9975221,28.4886156 36.7336853,27.6971052 C36.492425,26.9733234 35.8855757,26.4 35.0000009,26.4 C34.3392938,26.4 33.747038,26.6433888 33.4424852,27.2524926 C33.3263593,27.4847444 33.2465335,27.7471505 33.2146862,28.0097605 L33.1999793,28.2062883 C33.1965989,28.7004504 32.7949595,29.1 32.3000009,29.1 C31.8029444,29.1 31.4000009,28.6970556 31.4000009,28.2 C31.4254916,27.592689 31.5594179,26.9937039 31.8325166,26.4475074 C32.0546501,26.0032404 32.4019844,25.5315963 32.9398334,25.17303 C33.4833164,24.8107071 34.1675144,24.6 35.0000009,24.6 Z" id="Shape"></path>
            </g>
        </g>
    </g>
</svg>