<?xml version="1.0" encoding="UTF-8"?>
<svg width="22px" height="20px" viewBox="0 0 22 20" version="1.1" xmlns="http://www.w3.org/2000/svg" xmlns:xlink="http://www.w3.org/1999/xlink">
    <!-- Generator: sketchtool 63.1 (101010) - https://sketch.com -->
    <title>7E5C4BA0-BB36-4AD7-A2FA-0878F00995BE@1.5x</title>
    <desc>Created with sketchtool.</desc>
    <g id="All-screens" stroke="none" stroke-width="1" fill="none" fill-rule="evenodd">
        <g id="1B-Hisab-kitaab-Menu" transform="translate(-285.000000, -522.000000)" fill="#FFFFFF" fill-rule="nonzero">
            <g id="Group-13" transform="translate(16.000000, 356.000000)">
                <g id="Group-12" transform="translate(230.000000, 146.000000)">
                    <g id="Group-18" transform="translate(22.000000, 20.000000)">
                        <g id="invoice-(1)" transform="translate(17.000000, 0.000000)">
                            <path d="M21.3554688,0 C19.698293,0 1.56492188,0 0.64453125,0 C0.288578125,0 0,0.288578125 0,0.64453125 C0,1.00048437 0.288578125,1.2890625 0.64453125,1.2890625 L2.19140625,1.2890625 L2.19140625,19.2070312 C2.19140625,19.4229492 2.29955859,19.6245586 2.47942578,19.7439687 C2.65955078,19.8635937 2.88741406,19.8847344 3.08601563,19.8010742 L6.91809766,18.1876406 L10.7501797,19.8010742 C10.9100664,19.8684062 11.0904492,19.8684062 11.2504219,19.8010742 L15.0822461,18.1876406 L18.9139844,19.8010742 C19.1129727,19.8848633 19.340793,19.8634219 19.5206172,19.7440117 C19.7005273,19.6245586 19.8086367,19.4229922 19.8086367,19.2070742 L19.8086367,1.2890625 L21.3555117,1.2890625 C21.7114648,1.2890625 22.000043,1.00048437 22.000043,0.64453125 C22.000043,0.288578125 21.7114219,0 21.3554688,0 Z M18.5195312,18.2362813 L15.3323242,16.8942383 C15.1723516,16.8269063 14.9920117,16.8269063 14.8320391,16.8942383 L11.0002148,18.5076719 L7.16813281,16.8942383 C7.00824609,16.8269063 6.82782031,16.8269063 6.66793359,16.8942383 L3.48046875,18.2363242 L3.48046875,1.2890625 L18.5195312,1.2890625 L18.5195312,18.2362813 Z" id="Shape"></path>
                            <path d="M14.2226562,3.4375 L7.77734375,3.4375 C7.42139063,3.4375 7.1328125,3.72607812 7.1328125,4.08203125 C7.1328125,4.43798437 7.42139063,4.7265625 7.77734375,4.7265625 L14.2226562,4.7265625 C14.5786094,4.7265625 14.8671875,4.43798437 14.8671875,4.08203125 C14.8671875,3.72607813 14.5786094,3.4375 14.2226562,3.4375 Z" id="Path"></path>
                            <path d="M15.7265625,8.59375 L9.7109375,8.59375 C9.35498438,8.59375 9.06640625,8.88232813 9.06640625,9.23828125 C9.06640625,9.59423437 9.35498438,9.8828125 9.7109375,9.8828125 L15.7265625,9.8828125 C16.0825156,9.8828125 16.3710938,9.59423437 16.3710938,9.23828125 C16.3710938,8.88232813 16.0825156,8.59375 15.7265625,8.59375 Z" id="Path"></path>
                            <circle id="Oval" cx="6.359375" cy="9.23828125" r="1"></circle>
                            <path d="M15.7265625,12.03125 L9.7109375,12.03125 C9.35498438,12.03125 9.06640625,12.3198281 9.06640625,12.6757812 C9.06640625,13.0317344 9.35498438,13.3203125 9.7109375,13.3203125 L15.7265625,13.3203125 C16.0825156,13.3203125 16.3710938,13.0317344 16.3710938,12.6757812 C16.3710938,12.3198281 16.0825156,12.03125 15.7265625,12.03125 Z" id="Path"></path>
                            <circle id="Oval" cx="6.359375" cy="12.6757812" r="1"></circle>
                        </g>
                    </g>
                </g>
            </g>
        </g>
    </g>
</svg>