<?xml version="1.0" encoding="UTF-8"?>
<svg width="17px" height="17px" viewBox="0 0 17 17" version="1.1" xmlns="http://www.w3.org/2000/svg" xmlns:xlink="http://www.w3.org/1999/xlink">
    <!-- Generator: sketchtool 63.1 (101010) - https://sketch.com -->
    <title>AAF72E57-23C1-4C23-84DA-B5F651332FD7@1.5x</title>
    <desc>Created with sketchtool.</desc>
    <g id="Profile-&amp;-Intro" stroke="none" stroke-width="1" fill="none" fill-rule="evenodd">
        <g id="6A-Profile" transform="translate(-29.000000, -705.000000)" fill="#0B103A" fill-rule="nonzero">
            <g id="Help-Copy" transform="translate(0.000000, 693.000000)">
                <g id="Group-2" transform="translate(29.000000, 10.000000)">
                    <g id="noun_logout_1825594" transform="translate(0.000000, 2.000000)">
                        <path d="M9.37931034,15.2413793 L1.75862069,15.2413793 C1.43486756,15.2413793 1.17241379,14.9789255 1.17241379,14.6551724 L1.17241379,1.75862069 C1.17241379,1.43486756 1.43486756,1.17241379 1.75862069,1.17241379 L9.37931034,1.17241379 C9.70306347,1.17241379 9.96551724,0.909960026 9.96551724,0.586206897 C9.96551724,0.262453767 9.70306347,0 9.37931034,0 L1.75862069,0 C0.787361302,0 0,0.787361302 0,1.75862069 L0,14.6551724 C0,15.6264318 0.787361302,16.4137931 1.75862069,16.4137931 L9.37931034,16.4137931 C9.70306347,16.4137931 9.96551724,16.1513393 9.96551724,15.8275862 C9.96551724,15.5038331 9.70306347,15.2413793 9.37931034,15.2413793 Z" id="Path"></path>
                        <path d="M16.2437931,7.79068966 L12.1403448,3.68724138 C11.9077612,3.48806188 11.5610586,3.5014535 11.3445319,3.71798018 C11.1280052,3.93450686 11.1146136,4.28120949 11.3137931,4.5137931 L14.4148276,7.62068966 L4.68965517,7.62068966 C4.36590204,7.62068966 4.10344828,7.88314342 4.10344828,8.20689655 C4.10344828,8.53064968 4.36590204,8.79310345 4.68965517,8.79310345 L14.4206897,8.79310345 L11.3196552,11.8941379 C11.1523657,12.037401 11.0794968,12.2623453 11.1310079,12.476487 C11.1825189,12.6906287 11.3497161,12.8578259 11.5638578,12.909337 C11.7779996,12.960848 12.0029439,12.8879791 12.1462069,12.7206897 L16.2496552,8.61724138 C16.4753279,8.38699004 16.472709,8.01771696 16.2437931,7.79068966 Z" id="Path"></path>
                    </g>
                </g>
            </g>
        </g>
    </g>
</svg>