<?xml version="1.0" encoding="UTF-8"?>
<svg width="56px" height="57px" viewBox="0 0 56 57" version="1.1" xmlns="http://www.w3.org/2000/svg" xmlns:xlink="http://www.w3.org/1999/xlink">
    <!-- Generator: sketchtool 63.1 (101010) - https://sketch.com -->
    <title>C2ABB6D2-2502-45FA-B2C3-5DCFF6F3D8C4@1.5x</title>
    <desc>Created with sketchtool.</desc>
    <defs>
        <filter x="-21.9%" y="-36.8%" width="143.8%" height="173.7%" filterUnits="objectBoundingBox" id="filter-1">
            <feOffset dx="0" dy="25" in="SourceAlpha" result="shadowOffsetOuter1"></feOffset>
            <feGaussianBlur stdDeviation="7" in="shadowOffsetOuter1" result="shadowBlurOuter1"></feGaussianBlur>
            <feColorMatrix values="0 0 0 0 0   0 0 0 0 0   0 0 0 0 0  0 0 0 0.07 0" type="matrix" in="shadowBlurOuter1" result="shadowMatrixOuter1"></feColorMatrix>
            <feMerge>
                <feMergeNode in="shadowMatrixOuter1"></feMergeNode>
                <feMergeNode in="SourceGraphic"></feMergeNode>
            </feMerge>
        </filter>
    </defs>
    <g id="All-screens" stroke="none" stroke-width="1" fill="none" fill-rule="evenodd">
        <g id="1A-Hisab-kitaab--Home" transform="translate(-303.000000, -372.000000)" fill="#FFFFFF" fill-rule="nonzero">
            <g id="Options" filter="url(#filter-1)" transform="translate(15.000000, 247.000000)">
                <g id="Reciepts-&amp;-payments" transform="translate(180.000000, 110.000000)">
                    <g id="mastercard" transform="translate(122.000000, 15.000000)">
                        <path d="M18.9951477,0 C17.1485901,0 15.4302063,0.5590515 14,1.51608275 C12.5695801,0.5590515 10.8514099,0 9.00485228,0 C4.03961184,0 0,4.03918457 0,9.00399779 C0,13.9688111 4.03961184,18.0079956 9.00485228,18.0079956 C10.8514099,18.0079956 12.5697937,17.4489441 14,16.4919128 C15.4304199,17.4489441 17.1485901,18.0079956 18.9951477,18.0079956 C23.9603882,18.0079956 28,13.9688111 28,9.00399779 C28,4.03918457 23.9603882,0 18.9951477,0 Z M9.00485228,16.3673706 C4.94430541,16.3673706 1.640625,13.0641174 1.640625,9.00399779 C1.640625,4.94387819 4.94430541,1.640625 9.00485228,1.640625 C10.3338013,1.640625 11.5813599,1.99438477 12.6588745,2.61260989 C11.0118408,4.2453308 9.99029544,6.50738528 9.99029544,9.00399779 C9.99029544,11.5006104 11.0118408,13.7626648 12.6588745,15.3951721 C11.5813599,16.0133972 10.3338013,16.3673706 9.00485228,16.3673706 L9.00485228,16.3673706 Z M16.3690796,9.00399779 C16.3690796,11.1383057 15.4558411,13.0630493 14,14.4090881 C13.4847412,13.9329224 13.0376282,13.3841247 12.6748962,12.7791443 L13.6212464,12.7791443 C14.0743408,12.7791443 14.4415589,12.4119263 14.4415589,11.9588318 C14.4415589,11.5057373 14.0743408,11.1385193 13.6212464,11.1385193 L11.9468689,11.1385193 C11.8456116,10.8048401 11.7672119,10.4615479 11.7138061,10.1097107 L14.93396,10.1097107 C15.3868408,10.1097107 15.7542725,9.7424927 15.7542725,9.28939818 C15.7542725,8.83630371 15.3868408,8.46908568 14.93396,8.46908568 L11.6503601,8.46908568 C11.6755676,8.11895755 11.725769,7.77545169 11.7986145,7.44027709 L13.6212464,7.44027709 C14.0743408,7.44027709 14.4415589,7.07305911 14.4415589,6.61996459 C14.4415589,6.16708373 14.0743408,5.79965209 13.6212464,5.79965209 L12.3655701,5.79965209 C12.7699585,4.9665222 13.3270874,4.2209778 14,3.59869387 C15.4558411,4.94494629 16.3690796,6.86968997 16.3690796,9.00399779 L16.3690796,9.00399779 Z M18.9951477,16.3673706 C17.6661987,16.3673706 16.4186401,16.0133972 15.3411255,15.3951721 C16.9881592,13.7626648 18.0097046,11.5006104 18.0097046,9.00399779 C18.0097046,6.50738528 16.9881592,4.2453308 15.3411255,2.61260989 C16.4186401,1.99438477 17.6661987,1.640625 18.9951477,1.640625 C23.0556946,1.640625 26.359375,4.94387819 26.359375,9.00399779 C26.359375,13.0641174 23.0556946,16.3673706 18.9951477,16.3673706 L18.9951477,16.3673706 Z" id="Shape"></path>
                    </g>
                </g>
            </g>
        </g>
    </g>
</svg>