<?xml version="1.0" encoding="UTF-8"?>
<svg width="29px" height="24px" viewBox="0 0 29 24" version="1.1" xmlns="http://www.w3.org/2000/svg" xmlns:xlink="http://www.w3.org/1999/xlink">
    <!-- Generator: sketchtool 63.1 (101010) - https://sketch.com -->
    <title>92917B98-2DB8-4B65-9EDF-DE969F6DC1BF@1.5x</title>
    <desc>Created with sketchtool.</desc>
    <g id="All-screens" stroke="none" stroke-width="1" fill="none" fill-rule="evenodd">
        <g id="1B-Hisab-kitaab-Menu" transform="translate(-282.000000, -431.000000)" fill="#FFFFFF" fill-rule="nonzero">
            <g id="Group-13" transform="translate(16.000000, 356.000000)">
                <g id="money" transform="translate(266.000000, 75.000000)">
                    <path d="M28.9216425,14.6180094 C28.8578608,14.507116 28.759867,14.420801 28.6428743,14.3725897 L26.5630054,13.5058039 L28.7171554,12.2143512 C28.9894953,12.0520471 29.081061,11.6957341 28.9216425,11.4184645 C28.8578608,11.3075711 28.759867,11.2212561 28.6428743,11.1730448 L26.5630054,10.306259 L28.7171554,9.01480635 C28.9052864,8.89955001 29.0119225,8.6847442 28.9914238,8.46215768 C28.9749248,8.24233441 28.8377192,8.05079801 28.6371604,7.96768256 L20.449105,4.55289555 L16.4150736,2.80768924 C16.3495777,2.781293 16.2797964,2.7675495 16.2093723,2.76696776 L9.63835784,0.0444459188 C9.47701087,-0.0237625611 9.29387955,-0.0130004555 9.14124632,0.0735326907 L0.336086994,5.11136157 C0.0542476149,5.25585011 -0.0591738078,5.60561854 0.0827458188,5.89255954 C0.147456026,6.02345002 0.258377606,6.12467198 0.39322625,6.17593742 L2.51880657,7.07180999 L0.336086994,8.31090647 C0.061461446,8.46913851 -0.0351753204,8.82414256 0.120243455,9.10373915 C0.182025276,9.21485062 0.277876377,9.30211094 0.39322625,9.3522129 L2.51880657,10.2480855 L0.347514845,11.487182 C0.0571760018,11.6131277 -0.0778154901,11.9548972 0.0458909988,12.2504188 C0.110386934,12.404506 0.236950385,12.5227437 0.39322625,12.5750272 L2.51880657,13.4650824 L0.347514845,14.7041789 C0.0728892972,14.862411 -0.0237474692,15.217415 0.131671307,15.4970116 C0.193453127,15.6081231 0.289304229,15.6953834 0.404654101,15.7454853 L7.79275988,18.9392129 C7.81975818,18.95921 7.84847065,18.9767348 7.87846876,18.9915691 L11.9182141,20.7367754 L19.3463174,23.9537724 C19.5134497,24.0259803 19.7043663,24.0130367 19.8605707,23.9188682 L28.7171554,18.613441 C28.9894953,18.4511369 29.081061,18.0948239 28.9216425,17.8175543 C28.8578608,17.7066609 28.759867,17.6203459 28.6428743,17.5721346 L26.5630054,16.7053488 L28.7171554,15.4138961 C28.9894953,15.2516647 29.0809896,14.895279 28.9216425,14.6180094 Z M27.1401119,11.7955745 L19.5234491,16.3621976 L12.7124498,13.4186163 L12.7124498,11.4814373 L19.3406035,14.349393 C19.411099,14.3799341 19.48688,14.3957864 19.5634466,14.3959319 C19.6660115,14.3959319 19.7666481,14.3677904 19.8548568,14.3144889 L25.3230836,11.0393184 L27.1401119,11.7955745 Z M27.1629676,8.5902122 L19.5234491,13.1568354 L13.3352677,10.4808524 L20.3062569,5.73970856 L27.1629676,8.5902122 Z M7.51277752,17.56639 L1.90741653,15.1405532 L3.83300945,14.0410732 L7.51849145,15.6350283 L7.51277752,17.56639 Z M7.51277752,14.3668451 L1.90741653,11.9410083 L3.83300945,10.8298936 L7.51849145,12.4238487 L7.51277752,14.3668451 Z M7.51277752,11.1673002 L1.90741653,8.74728076 L3.83300945,7.64780079 L7.51849145,9.24175589 L7.51277752,11.1673002 Z M1.90741653,5.54773586 L9.46122615,1.22544157 L14.9408808,3.51166184 L8.03845868,8.20044945 L1.90741653,5.54773586 Z M11.8210774,10.1201764 C11.6635873,10.2285246 11.569379,10.4095171 11.5696647,10.6030168 L11.5696647,19.3290484 L8.66127657,18.0724998 L8.66127657,9.17776499 L16.232228,4.04104108 L19.0491933,5.20451196 L11.8210774,10.1201764 Z M27.1401119,18.1946643 L19.5234491,22.7554701 L12.7124498,19.8118888 L12.7124498,17.8805271 L19.3406035,20.719396 C19.5077358,20.791604 19.6986523,20.7786603 19.8548568,20.6844919 L25.3230836,17.4093214 L27.1401119,18.1946643 Z M19.5234491,19.5559252 L12.7124498,16.6123439 L12.7124498,14.6809822 L19.3463174,17.5489379 C19.5134497,17.6211458 19.7043663,17.6082022 19.8605707,17.5140338 L25.3287975,14.2388633 L27.1401119,14.9951194 L19.5234491,19.5559252 Z" id="Shape"></path>
                </g>
            </g>
        </g>
    </g>
</svg>