<?xml version="1.0" encoding="UTF-8"?>
<svg width="36px" height="18px" viewBox="0 0 36 18" version="1.1" xmlns="http://www.w3.org/2000/svg" xmlns:xlink="http://www.w3.org/1999/xlink">
    <!-- Generator: sketchtool 63.1 (101010) - https://sketch.com -->
    <title>5880751B-F49E-49A6-9EDB-8C4794B6A500@1.5x</title>
    <desc>Created with sketchtool.</desc>
    <g id="All-screens" stroke="none" stroke-width="1" fill="none" fill-rule="evenodd">
        <g id="1B-Hisab-kitaab-Menu" transform="translate(-64.000000, -430.000000)">
            <g id="Group-13" transform="translate(16.000000, 356.000000)">
                <g id="Group-14" transform="translate(44.000000, 74.000000)">
                    <g id="money-sign" transform="translate(4.000000, 0.000000)">
                        <path d="M21.717634,17.0349392 L14.2287947,17.0349392 C13.9292411,17.0349392 13.7794643,16.8851624 13.6296875,16.5856088 C13.4799107,16.2860553 13.4799107,15.9865017 13.6296875,15.8367249 L17.3741072,9.84565347 C17.6736607,9.39632311 18.4225447,9.39632311 18.5723215,9.84565347 L22.3167411,15.8367249 C22.4665179,16.1362785 22.4665179,16.2860553 22.3167411,16.5856088 C22.1669643,16.8851624 22.0171875,17.0349392 21.717634,17.0349392 Z M15.5767857,15.5371713 L20.3696429,15.5371713 L17.9732143,11.6429749 L15.5767857,15.5371713 Z" id="Shape" fill="#FFFFFF" fill-rule="nonzero"></path>
                        <path d="M0.74888393,12.5416356 C0.449330358,12.5416356 0,12.242082 0,11.9425285 C0,11.4931981 0.149776786,11.1936445 0.599107144,11.0438678 L35.0477679,5.05279632 C35.4970983,5.05279632 35.7966518,5.2025731 35.9464286,5.65190346 C35.9464286,6.10123382 35.7966518,6.40078739 35.3473215,6.55056418 L0.74888393,12.5416356 Z" id="Path" fill="#FFFFFF" fill-rule="nonzero"></path>
                        <path d="M4.5,0.5 C4.5,0.223858 4.276142,0 4,0 C3.7238575,0 3.5,0.223858 3.5,0.5 L3.5,3.5 L0.5,3.5 C0.2238575,3.5 0,3.723858 0,4 C0,4.276142 0.223858,4.5 0.5,4.5 L3.5,4.5 L3.5,7.5 C3.5,7.776142 3.7238575,8 4,8 C4.276142,8 4.5,7.776142 4.5,7.5 L4.5,4.5 L7.5,4.5 C7.776142,4.5 8,4.276142 8,4 C8,3.723858 7.776142,3.5 7.5,3.5 L4.5,3.5 L4.5,0.5 Z" id="Shape" fill="#FEFEFE"></path>
                    </g>
                </g>
            </g>
        </g>
    </g>
</svg>