<?xml version="1.0" encoding="UTF-8"?>
<svg width="24px" height="13px" viewBox="0 0 24 13" version="1.1" xmlns="http://www.w3.org/2000/svg" xmlns:xlink="http://www.w3.org/1999/xlink">
    <!-- Generator: sketchtool 63.1 (101010) - https://sketch.com -->
    <title>F19E5715-EA22-4E78-AF6A-7760B38FA5B6@1.5x</title>
    <desc>Created with sketchtool.</desc>
    <g id="All-screens" stroke="none" stroke-width="1" fill="none" fill-rule="evenodd">
        <g id="1D-Create-asset-4" transform="translate(-56.000000, -230.000000)" fill="#3A4856">
            <g id="Group" transform="translate(30.000000, 105.000000)">
                <g id="Group-14" transform="translate(0.000000, 94.000000)">
                    <g id="Group-13" transform="translate(20.000000, 20.000000)">
                        <g id="Group-10-Copy-2">
                            <g id="money-sign" transform="translate(6.300000, 11.200000)">
                                <path d="M14.5023438,11.9244574 L9.26015626,11.9244574 C9.05046876,11.9244574 8.94562501,11.8196137 8.84078126,11.6099262 C8.73593751,11.4002387 8.73593751,11.1905512 8.84078126,11.0857074 L11.461875,6.89195743 C11.6715625,6.57742618 12.1957813,6.57742618 12.300625,6.89195743 L14.9217188,11.0857074 C15.0265625,11.2953949 15.0265625,11.4002387 14.9217188,11.6099262 C14.816875,11.8196137 14.7120313,11.9244574 14.5023438,11.9244574 Z M10.20375,10.8760199 L13.55875,10.8760199 L11.88125,8.15008243 L10.20375,10.8760199 Z" id="Shape" fill-rule="nonzero"></path>
                                <path d="M1.16588542,8.77914493 C0.97953125,8.77914493 0.7,8.56945743 0.7,8.35976993 C0.7,8.04523868 0.793177083,7.83555118 1.07270833,7.73070743 L22.5034375,3.53695742 C22.7829688,3.53695742 22.969323,3.64180117 23.0625,3.95633242 C23.0625,4.27086367 22.969323,4.48055117 22.6897917,4.58539492 L1.16588542,8.77914493 Z" id="Path" fill-rule="nonzero"></path>
                                <path d="M3.15,0.35 C3.15,0.1567006 2.9932994,0 2.8,0 C2.60670025,0 2.45,0.1567006 2.45,0.35 L2.45,2.45 L0.35,2.45 C0.15670025,2.45 0,2.6067006 0,2.8 C0,2.9932994 0.1567006,3.15 0.35,3.15 L2.45,3.15 L2.45,5.25 C2.45,5.4432994 2.60670025,5.6 2.8,5.6 C2.9932994,5.6 3.15,5.4432994 3.15,5.25 L3.15,3.15 L5.25,3.15 C5.4432994,3.15 5.6,2.9932994 5.6,2.8 C5.6,2.6067006 5.4432994,2.45 5.25,2.45 L3.15,2.45 L3.15,0.35 Z" id="Shape"></path>
                            </g>
                        </g>
                    </g>
                </g>
            </g>
        </g>
    </g>
</svg>