<?xml version="1.0" encoding="UTF-8"?>
<svg width="36px" height="14px" viewBox="0 0 36 14" version="1.1" xmlns="http://www.w3.org/2000/svg" xmlns:xlink="http://www.w3.org/1999/xlink">
    <!-- Generator: sketchtool 63.1 (101010) - https://sketch.com -->
    <title>6C8A2455-B017-4BFB-BC14-4CD0A3EEBA18@1.5x</title>
    <desc>Created with sketchtool.</desc>
    <g id="All-screens" stroke="none" stroke-width="1" fill="none" fill-rule="evenodd">
        <g id="1B-Hisab-kitaab-Menu" transform="translate(-64.000000, -524.000000)">
            <g id="Group-13" transform="translate(16.000000, 356.000000)">
                <g id="Group-3" transform="translate(16.000000, 146.000000)">
                    <g id="Group-25" transform="translate(19.000000, 22.000000)">
                        <g id="money-sign" transform="translate(31.000000, 7.000000) scale(-1, 1) translate(-31.000000, -7.000000) translate(13.000000, 0.000000)">
                            <path d="M22.200279,13.5262835 L14.7114397,13.5262835 C14.4118862,13.5262835 14.2621094,13.3765067 14.1123326,13.0769531 C13.9625558,12.7773996 13.9625558,12.477846 14.1123326,12.3280692 L17.8567522,6.33699777 C18.1563058,5.88766741 18.9051897,5.88766741 19.0549665,6.33699777 L22.7993862,12.3280692 C22.949163,12.6276228 22.949163,12.7773996 22.7993862,13.0769531 C22.6496094,13.3765067 22.4998326,13.5262835 22.200279,13.5262835 Z M16.0594308,12.0285156 L20.852288,12.0285156 L18.4558594,8.1343192 L16.0594308,12.0285156 Z" id="Shape" fill="#FFFFFF" fill-rule="nonzero"></path>
                            <path d="M0.74888393,8.4888393 C0.449330358,8.4888393 0,8.18928573 0,7.88973215 C0,7.4404018 0.149776786,7.14084822 0.599107144,6.99107144 L35.0477679,1 C35.4970983,1 35.7966518,1.14977679 35.9464286,1.59910714 C35.9464286,2.0484375 35.7966518,2.34799107 35.3473215,2.49776786 L0.74888393,8.4888393 Z" id="Path" fill="#FFFFFF" fill-rule="nonzero"></path>
                            <path d="M3.5,0.5 L0.5,0.5 C0.2238575,0.5 0,0.723858 0,1 C0,1.276142 0.223858,1.5 0.5,1.5 L3.5,1.5 L4.5,1.5 L7.5,1.5 C7.776142,1.5 8,1.276142 8,1 C8,0.723858 7.776142,0.5 7.5,0.5 L4.5,0.5 L3.5,0.5 Z" id="Shape" fill="#FEFEFE"></path>
                        </g>
                    </g>
                </g>
            </g>
        </g>
    </g>
</svg>