<?xml version="1.0" encoding="UTF-8"?>
<svg width="22px" height="18px" viewBox="0 0 22 18" version="1.1" xmlns="http://www.w3.org/2000/svg" xmlns:xlink="http://www.w3.org/1999/xlink">
    <!-- Generator: sketchtool 63.1 (101010) - https://sketch.com -->
    <title>FB337CAE-8116-44DE-8533-59089949CD74@1.5x</title>
    <desc>Created with sketchtool.</desc>
    <g id="All-screens" stroke="none" stroke-width="1" fill="none" fill-rule="evenodd">
        <g id="1D-Create-asset-9" transform="translate(-94.000000, -549.000000)" fill="#726A95" fill-rule="nonzero">
            <g id="Group-3" transform="translate(39.000000, 435.000000)">
                <g id="Group-11" transform="translate(0.000000, 99.000000)">
                    <g id="Group-2" transform="translate(55.000000, 13.000000)">
                        <g id="photo-camera" transform="translate(0.000000, 2.000000)">
                            <path d="M18.7916523,2.76430859 L16.0416523,2.76430859 C15.8445547,2.76430859 15.6695,2.63871094 15.6071523,2.45080859 L15.3175,1.58180859 C15.0049023,0.644058594 14.1313477,0.0143085937 13.1431523,0.0143085937 L8.85680469,0.0143085937 C7.86865234,0.0143085937 6.99505469,0.644058594 6.68340234,1.58090625 L6.39375,2.45080859 C6.3305,2.63871094 6.15540234,2.76430859 5.95834766,2.76430859 L3.20834766,2.76430859 C1.43915234,2.76430859 0,4.20350391 0,5.97265625 L0,14.2226562 C0,15.9918086 1.43915234,17.4310039 3.20834766,17.4310039 L18.7916953,17.4310039 C20.5608477,17.4310039 22,15.9918086 22,14.2226562 L22,5.97265625 C22,4.20350391 20.5608477,2.76430859 18.7916523,2.76430859 Z M21.0833477,14.2226563 C21.0833477,15.4858086 20.0548477,16.5143086 18.7916953,16.5143086 L3.20834766,16.5143086 C1.94519531,16.5143086 0.916695312,15.4858086 0.916695312,14.2226563 L0.916695312,5.97265625 C0.916695312,4.70950391 1.94519531,3.68100391 3.20834766,3.68100391 L5.95834766,3.68100391 C6.5505,3.68100391 7.07484766,3.30335156 7.26275,2.74140625 L7.55334766,1.87055859 C7.74034766,1.30865625 8.26469531,0.930960938 8.85684766,0.930960938 L13.1431953,0.930960938 C13.7353477,0.930960938 14.2596953,1.30861328 14.4475977,1.87146094 L14.73725,2.74136328 C14.9251523,3.30326563 15.4495,3.68096094 16.0416523,3.68096094 L18.7916523,3.68096094 C20.0548047,3.68096094 21.0833477,4.70946094 21.0833477,5.97261328 L21.0833477,14.2226563 L21.0833477,14.2226563 Z" id="Shape"></path>
                            <path d="M11,4.59765625 C7.96675,4.59765625 5.5,7.06440625 5.5,10.0976562 C5.5,13.1309062 7.96675,15.5976562 11,15.5976562 C14.03325,15.5976562 16.5,13.1309062 16.5,10.0976562 C16.5,7.06440625 14.03325,4.59765625 11,4.59765625 Z M11,14.6810039 C8.47275,14.6810039 6.41665234,12.6249062 6.41665234,10.0976562 C6.41665234,7.57040625 8.47275,5.51430859 11,5.51430859 C13.52725,5.51430859 15.5833477,7.57040625 15.5833477,10.0976562 C15.5833477,12.6249062 13.52725,14.6810039 11,14.6810039 Z" id="Shape"></path>
                            <path d="M11,6.43100391 C8.97784766,6.43100391 7.33334766,8.07550391 7.33334766,10.0976562 C7.33334766,10.3506562 7.53869531,10.5560039 7.79169531,10.5560039 C8.04469531,10.5560039 8.25,10.3506562 8.25,10.0976562 C8.25,8.58150391 9.48384766,7.34765625 11,7.34765625 C11.253,7.34765625 11.4583477,7.14230859 11.4583477,6.88930859 C11.4583477,6.63630859 11.253,6.43100391 11,6.43100391 Z" id="Path"></path>
                        </g>
                    </g>
                </g>
            </g>
        </g>
    </g>
</svg>