<?xml version="1.0" encoding="UTF-8"?>
<svg width="20px" height="22px" viewBox="0 0 20 22" version="1.1" xmlns="http://www.w3.org/2000/svg" xmlns:xlink="http://www.w3.org/1999/xlink">
    <!-- Generator: sketchtool 63.1 (101010) - https://sketch.com -->
    <title>DEDE395B-BC32-4550-B0B3-F529E0ABAB8F@1.5x</title>
    <desc>Created with sketchtool.</desc>
    <g id="Profile-&amp;-Intro" stroke="none" stroke-width="1" fill="none" fill-rule="evenodd">
        <g id="6A-Profile" transform="translate(-24.000000, -337.000000)" fill="#050A30" stroke="#FFFFFF" stroke-width="0.8">
            <g id="Personal" transform="translate(0.000000, 318.000000)">
                <path d="M33.9999768,30 C37.8812958,30 40.2089918,31.378016 41.5232988,33.210178 C42.5626008,34.6589784 42.8870002,36.2810404 42.9728258,37.4380959 L42.9932517,37.805683 L42.9932517,37.805683 L42.9999388,38.133572 L42.9999388,38.133572 C43.0039758,39.262886 42.0572008,40 41.0865238,40 L26.9134278,40 C25.9427488,40 24.9959768,39.262884 25.0000129,38.13357 L25.0067002,37.805681 C25.0088497,37.7475788 25.0115722,37.6878224 25.0149493,37.6265214 L25.0437215,37.2410552 C25.1512037,36.1013445 25.4950918,34.5784885 26.4766548,33.210177 C27.7909628,31.378016 30.1186578,30 33.9999768,30 Z M33.9999768,32 C30.6450648,32 28.9765078,33.156544 28.1017608,34.375953 C27.2272718,35.595001 27.0224608,37.047937 27.0018098,38 L40.9981428,38 C40.9774928,37.047937 40.7726808,35.595001 39.8981938,34.375953 C39.0234458,33.156544 37.3548898,32 33.9999768,32 Z M34.0000748,20 C36.2092138,20 38.0000748,21.790861 38.0000748,24 C38.0000748,26.209139 36.2092138,28 34.0000748,28 C31.7909368,28 30.0000748,26.209139 30.0000748,24 C30.0000748,21.790861 31.7909368,20 34.0000748,20 Z M34.0000748,22 C32.8955058,22 32.0000748,22.895431 32.0000748,24 C32.0000748,25.104569 32.8955058,26 34.0000748,26 C35.1046448,26 36.0000748,25.104569 36.0000748,24 C36.0000748,22.895431 35.1046448,22 34.0000748,22 Z" id="Shape"></path>
            </g>
        </g>
    </g>
</svg>