<?xml version="1.0" encoding="UTF-8"?>
<svg width="48px" height="61px" viewBox="0 0 48 61" version="1.1" xmlns="http://www.w3.org/2000/svg" xmlns:xlink="http://www.w3.org/1999/xlink">
    <!-- Generator: sketchtool 63.1 (101010) - https://sketch.com -->
    <title>FBB2B7E3-8D33-468C-A014-A60DFC4BF573@1.5x</title>
    <desc>Created with sketchtool.</desc>
    <defs>
        <filter x="-21.9%" y="-36.8%" width="143.8%" height="173.7%" filterUnits="objectBoundingBox" id="filter-1">
            <feOffset dx="0" dy="25" in="SourceAlpha" result="shadowOffsetOuter1"></feOffset>
            <feGaussianBlur stdDeviation="7" in="shadowOffsetOuter1" result="shadowBlurOuter1"></feGaussianBlur>
            <feColorMatrix values="0 0 0 0 0   0 0 0 0 0   0 0 0 0 0  0 0 0 0.07 0" type="matrix" in="shadowBlurOuter1" result="shadowMatrixOuter1"></feColorMatrix>
            <feMerge>
                <feMergeNode in="shadowMatrixOuter1"></feMergeNode>
                <feMergeNode in="SourceGraphic"></feMergeNode>
            </feMerge>
        </filter>
    </defs>
    <g id="All-screens" stroke="none" stroke-width="1" fill="none" fill-rule="evenodd">
        <g id="1A-Hisab-kitaab--Home" transform="translate(-129.000000, -372.000000)" fill="#FFFFFF" fill-rule="nonzero">
            <g id="Options" filter="url(#filter-1)" transform="translate(15.000000, 247.000000)">
                <g id="Self-Transfer" transform="translate(0.000000, 110.000000)">
                    <g id="recycle-water" transform="translate(126.000000, 15.000000)">
                        <path d="M23.8390503,13.3793335 L22.3397827,11.564209 C22.1156616,11.2928467 21.7254638,11.229126 21.4264526,11.4147949 L19.4470825,12.6452637 C19.1173096,12.8503418 19.0162354,13.2839355 19.2211304,13.6137085 C19.4262085,13.9434815 19.8596191,14.0445557 20.1895752,13.8396607 L20.8187256,13.4485474 C20.2965088,15.3922119 19.1722412,17.1390381 17.562561,18.4711304 C15.2920532,20.3499756 12.2871094,20.9454346 9.52478025,20.0639648 C7.80780028,19.5161133 6.35778806,18.5755005 5.21502684,17.2681275 C4.15301512,16.0532227 3.411438,14.5598145 3.07067869,12.9497681 C2.99029542,12.5698242 2.61730959,12.3270263 2.23718259,12.4074097 C1.85723878,12.487793 1.61444091,12.8609619 1.69482422,13.2409058 C2.51934816,17.1362915 5.286438,20.1877441 9.09722902,21.4037475 C10.0797729,21.7172241 11.0877685,21.8706665 12.0899048,21.8706665 C14.3728638,21.8706665 16.6234131,21.0734253 18.4590454,19.5545654 C20.3459473,17.993042 21.6491089,15.9292603 22.2242432,13.6325684 L22.7546997,14.2749023 C22.8936768,14.4433594 23.0947266,14.5303345 23.2972412,14.5303345 C23.454895,14.5303345 23.6136474,14.4776001 23.7445679,14.3693848 C24.0439453,14.1220093 24.0862427,13.678894 23.8390503,13.3793335 L23.8390503,13.3793335 Z" id="Path"></path>
                        <path d="M2.20275881,10.6135254 C2.33001708,10.6135254 2.45855714,10.5789185 2.57354737,10.5075073 L4.55291747,9.27703856 C4.88269041,9.07196044 4.98376462,8.63836669 4.77886964,8.30859375 C4.57379152,7.97882081 4.14019777,7.87774659 3.81042478,8.08264162 L3.16168214,8.48602294 C3.61083984,6.72509766 4.54595948,5.14086914 5.91339112,3.84429933 C7.12847902,2.69183348 8.62591552,1.9088745 10.2436523,1.58001708 C11.8621216,1.25097656 13.5300293,1.39141847 15.0670166,1.98596194 C16.6221314,2.58764648 17.9344482,3.52844241 18.9677124,4.78216552 C19.9334107,5.95404052 20.6138306,7.37329102 20.9353638,8.88629152 C21.0161133,9.26623537 21.3896484,9.50866697 21.7694092,9.42791747 C22.1491699,9.34716797 22.3916016,8.97381591 22.3108521,8.59405519 C21.942627,6.8605957 21.1618652,5.23333739 20.0529785,3.88787841 C18.8642578,2.44537355 17.3574829,1.36413572 15.5744018,0.674377453 C13.7861939,-0.0173950312 11.8460083,-0.180725109 9.963501,0.20178225 C8.08740234,0.583374 6.35229492,1.48992919 4.94567869,2.82385256 C3.93566897,3.78167723 3.12506105,4.89019777 2.53619386,6.11883544 C2.20385742,6.81225586 1.94696044,7.53442383 1.76641847,8.27819822 L1.24530028,7.6472168 C0.997924781,7.34783934 0.554809594,7.30554197 0.255432141,7.55291747 C-0.0439453125,7.80010988 -0.0862426875,8.2434082 0.160949719,8.54278566 L1.6602173,10.3579102 C1.7980957,10.5250854 1.99896239,10.6135254 2.20275881,10.6135254 Z" id="Path"></path>
                    </g>
                </g>
            </g>
        </g>
    </g>
</svg>