<?xml version="1.0" encoding="UTF-8"?>
<svg width="16px" height="20px" viewBox="0 0 16 20" version="1.1" xmlns="http://www.w3.org/2000/svg" xmlns:xlink="http://www.w3.org/1999/xlink">
    <!-- Generator: sketchtool 63.1 (101010) - https://sketch.com -->
    <title>A6619BAF-2F5A-4858-BEE2-8639A51CB48F@1.5x</title>
    <desc>Created with sketchtool.</desc>
    <g id="All-screens" stroke="none" stroke-width="1" fill="none" fill-rule="evenodd">
        <g id="1A-Hisab-kitaab--Home" transform="translate(-254.000000, -850.000000)" fill="#FFFFFF" stroke="#000000" stroke-width="0.6">
            <g id="Bottom-Nav.-Copy-3" transform="translate(15.000000, 813.000000)">
                <g id="Group-4" transform="translate(99.000000, 0.000000)">
                    <g id="Reports" transform="translate(141.000000, 38.000000)">
                        <path d="M1,0 C1.552285,0 2,0.447716 2,1 L2,17 C2,17.552284 1.552285,18 1,18 C0.447715,18 0,17.552284 0,17 L0,1 C0,0.447716 0.447715,0 1,0 Z M5,6 C5.552285,6 6,6.447715 6,7 L6,17 C6,17.552284 5.552285,18 5,18 C4.447715,18 4,17.552284 4,17 L4,7 C4,6.447715 4.447715,6 5,6 Z M9,10 C9.552284,10 10,10.447716 10,11 L10,17 C10,17.552284 9.552284,18 9,18 C8.447716,18 8,17.552284 8,17 L8,11 C8,10.447716 8.447716,10 9,10 Z M13,2 C13.552284,2 14,2.447716 14,3 L14,17 C14,17.552284 13.552284,18 13,18 C12.447716,18 12,17.552284 12,17 L12,3 C12,2.447716 12.447716,2 13,2 Z" id="Shape"></path>
                    </g>
                </g>
            </g>
        </g>
    </g>
</svg>