<?xml version="1.0" encoding="UTF-8"?>
<svg width="17px" height="15px" viewBox="0 0 17 15" version="1.1" xmlns="http://www.w3.org/2000/svg" xmlns:xlink="http://www.w3.org/1999/xlink">
    <!-- Generator: sketchtool 63.1 (101010) - https://sketch.com -->
    <title>60CB1303-BD30-4975-99C8-376B44F51868@1.5x</title>
    <desc>Created with sketchtool.</desc>
    <g id="All-screens" stroke="none" stroke-width="1" fill="none" fill-rule="evenodd">
        <g id="1D-Create-asset-1" transform="translate(-199.000000, -229.000000)" fill="#3A4856" fill-rule="nonzero">
            <g id="Group-15" transform="translate(30.000000, 106.000000)">
                <g id="Group-14" transform="translate(0.000000, 93.000000)">
                    <g id="Group-12" transform="translate(160.000000, 20.000000)">
                        <g id="Group-10-Copy-3">
                            <g id="Shape-2" transform="translate(9.100000, 10.500000)">
                                <path d="M16.8709581,8.52717212 C16.8337521,8.46248435 16.7765891,8.41213394 16.7083434,8.38401067 L15.4950865,7.87838562 L16.751674,7.12503823 C16.9105389,7.03036079 16.9639522,6.82251156 16.8709581,6.66077093 C16.8337521,6.59608316 16.7765891,6.54573275 16.7083434,6.51760948 L15.4950865,6.01198443 L16.751674,5.25863704 C16.861417,5.19140418 16.9236215,5.06610079 16.9116639,4.93625865 C16.9020395,4.8080284 16.8220029,4.69629884 16.7050102,4.64781483 L11.9286446,2.65585574 L9.57545959,1.63781872 C9.53725366,1.62242091 9.4965479,1.61440387 9.45546715,1.61406453 L5.62237541,0.025926786 C5.52825634,-0.013861494 5.42142974,-0.00758359904 5.33239368,0.0428940696 L0.196050747,2.98162758 C0.0316444421,3.06591256 -0.0345180546,3.26994415 0.0482683943,3.4373264 C0.0860160152,3.51367918 0.15072027,3.57272532 0.229381979,3.60263016 L1.46930383,4.12522249 L0.196050747,4.84802877 C0.0358525102,4.9403308 -0.0205189369,5.14741649 0.0701420157,5.31051451 C0.106181411,5.37532953 0.162094553,5.42623138 0.229381979,5.45545753 L1.46930383,5.97804986 L0.202716993,6.70085614 C0.0333526677,6.77432448 -0.0453923692,6.97369006 0.0267697493,7.14607766 C0.064392378,7.23596184 0.138221058,7.30493385 0.229381979,7.33543254 L1.46930383,7.85463142 L0.202716993,8.5774377 C0.0425187567,8.66973972 -0.0138526904,8.87682542 0.0768082622,9.03992343 C0.112847657,9.10473846 0.1687608,9.15564031 0.236048226,9.18486645 L4.5457766,11.0478742 C4.5615256,11.0595392 4.57827455,11.069762 4.59577344,11.0784153 L6.95229159,12.0964523 L11.2853518,13.9730339 C11.3828457,14.0151552 11.4942137,14.0076047 11.5853329,13.9526731 L16.751674,10.8578406 C16.9105389,10.7631632 16.9639522,10.5553139 16.8709581,10.3935733 C16.8337521,10.3288855 16.7765891,10.2785351 16.7083434,10.2504119 L15.4950865,9.74478681 L16.751674,8.99143942 C16.9105389,8.8968044 16.9639106,8.68891275 16.8709581,8.52717212 Z M15.8317319,6.88075176 L11.3886786,9.54461528 L7.41559572,7.82752619 L7.41559572,6.6975051 L11.2820187,8.37047926 C11.3231411,8.38829491 11.3673467,8.39754208 11.4120105,8.39762691 C11.4718401,8.39762691 11.5305447,8.38121107 11.5819998,8.35011852 L14.7717987,6.43960239 L15.8317319,6.88075176 Z M15.8450644,5.01095711 L11.3886786,7.67482063 L7.77890615,6.11383055 L11.8453165,3.34816333 L15.8450644,5.01095711 Z M4.38245356,10.2470608 L1.11265964,8.83198937 L2.23592218,8.19062605 L4.38578668,9.12043319 L4.38245356,10.2470608 Z M4.38245356,8.38065963 L1.11265964,6.96558818 L2.23592218,6.31743795 L4.38578668,7.24724509 L4.38245356,8.38065963 Z M4.38245356,6.51425844 L1.11265964,5.10258045 L2.23592218,4.46121713 L4.38578668,5.39102427 L4.38245356,6.51425844 Z M1.11265964,3.23617925 L5.51904859,0.714840917 L8.71551379,2.0484694 L4.6891009,4.78359551 L1.11265964,3.23617925 Z M6.89562849,5.90343623 C6.80375928,5.96663936 6.74880441,6.07221828 6.74897107,6.18509314 L6.74897107,11.2752782 L5.05241133,10.5422916 L5.05241133,5.35369624 L9.46879964,2.35727397 L11.1120294,3.03596531 L6.89562849,5.90343623 Z M15.8317319,10.6135541 L11.3886786,13.2740242 L7.41559572,11.5569351 L7.41559572,10.4303075 L11.2820187,12.0863144 C11.3795126,12.1284356 11.4908805,12.1208852 11.5819998,12.0659536 L14.7717987,10.1554375 L15.8317319,10.6135541 Z M11.3886786,11.407623 L7.41559572,9.69053392 L7.41559572,8.56390629 L11.2853518,10.2368805 C11.3828457,10.2790017 11.4942137,10.2714513 11.5853329,10.2165197 L14.7751319,8.30600358 L15.8317319,8.74715295 L11.3886786,11.407623 Z" id="Shape"></path>
                            </g>
                        </g>
                    </g>
                </g>
            </g>
        </g>
    </g>
</svg>