<?xml version="1.0" encoding="UTF-8"?>
<svg width="21px" height="21px" viewBox="0 0 21 21" version="1.1" xmlns="http://www.w3.org/2000/svg" xmlns:xlink="http://www.w3.org/1999/xlink">
    <!-- Generator: sketchtool 63.1 (101010) - https://sketch.com -->
    <title>309CE0A8-0E4F-47D3-9C38-A4B81FBA7952@1.5x</title>
    <desc>Created with sketchtool.</desc>
    <g id="All-screens" stroke="none" stroke-width="1" fill="none" fill-rule="evenodd">
        <g id="1A-Hisab-kitaab--Home" transform="translate(-45.000000, -851.000000)" fill="#FBBB73" stroke="#101645">
            <g id="Bottom-Nav.-Copy-3" transform="translate(15.000000, 813.000000)">
                <path d="M41.0141779,39.0000957 C41.3025729,39.0042793 41.5751599,39.1326863 41.7619569,39.3524473 L50.2619589,49.3524463 C50.5143999,49.6494363 50.5712719,50.0660433 50.4076669,50.4198283 C50.2440619,50.7736123 49.8898009,51.0000957 49.5000189,51.0000957 L48.0000189,51.0000957 L48.0000189,57.0000957 C48.0000189,57.5523793 47.5523029,58.0000957 47.0000189,58.0000957 L42.0000179,58.0000957 L42.0000179,53.0000957 L40.0000179,53.0000957 L40.0000179,58.0000957 L35.0000189,58.0000957 C34.4477339,58.0000957 34.0000189,57.5523793 34.0000189,57.0000957 L34.0000189,51.0000957 L32.0000179,51.0000957 C31.6051079,51.0000957 31.2471829,50.7676843 31.0865179,50.4069333 C30.9258539,50.0461823 30.9925429,49.6246643 31.2567239,49.3311303 L40.2567239,39.3311303 C40.4496689,39.1167463 40.7257829,38.9961103 41.0141779,39.0000957 Z M34.2453809,49.0000943 L36.0000189,49.0000943 L36.0000189,56.0000943 L38.0000189,56.0000943 L38.0000189,51.0000943 L44.0000179,51.0000943 L44.0000179,56.0000943 L46.0000179,56.0000943 L46.0000179,49.0000943 L47.3375779,49.0000943 L40.9785109,41.5188403 L34.2453809,49.0000943 Z" id="Shape"></path>
            </g>
        </g>
    </g>
</svg>