<?xml version="1.0" encoding="UTF-8"?>
<svg width="13px" height="13px" viewBox="0 0 13 13" version="1.1" xmlns="http://www.w3.org/2000/svg" xmlns:xlink="http://www.w3.org/1999/xlink">
    <!-- Generator: sketchtool 63.1 (101010) - https://sketch.com -->
    <title>3088A117-18A3-440E-B21E-46E1BFB2DF9F</title>
    <desc>Created with sketchtool.</desc>
    <g id="All-screens" stroke="none" stroke-width="1" fill="none" fill-rule="evenodd">
        <g id="1D-Create-asset-8" transform="translate(-181.000000, -395.000000)" fill="#726A95" fill-rule="nonzero">
            <g id="Progress-bar-4" transform="translate(61.000000, 395.000000)">
                <g id="Progress-/-active" transform="translate(120.000000, 0.000000)">
                    <g id="checked">
                        <path d="M6.49326161,0 C2.91301711,0 0,2.91301711 0,6.49326161 C0,10.0735061 2.91301711,12.9865232 6.49326161,12.9865232 C10.0735061,12.9865232 12.9865232,10.0735061 12.9865232,6.49326161 C12.9865232,2.91301711 10.0735061,0 6.49326161,0 Z M10.1223276,4.78450856 L5.97249878,8.90178973 C5.7283912,9.14589731 5.33781907,9.16217115 5.07743765,8.91806357 L2.88046944,6.91638142 C2.62008802,6.67227384 2.60381418,6.26542787 2.83164792,6.00504645 C3.0757555,5.74466504 3.48260147,5.7283912 3.74298289,5.97249878 L5.48428362,7.56733496 L9.19471883,3.85689976 C9.45510024,3.59651834 9.86194621,3.59651834 10.1223276,3.85689976 C10.382709,4.11728117 10.382709,4.52412714 10.1223276,4.78450856 Z" id="Shape"></path>
                    </g>
                </g>
            </g>
        </g>
    </g>
</svg>