<?xml version="1.0" encoding="UTF-8"?>
<svg width="20px" height="25px" viewBox="0 0 20 25" version="1.1" xmlns="http://www.w3.org/2000/svg" xmlns:xlink="http://www.w3.org/1999/xlink">
    <!-- Generator: sketchtool 63.1 (101010) - https://sketch.com -->
    <title>B9D22640-5684-4BCE-A17B-D1DF5A36923C@1.5x</title>
    <desc>Created with sketchtool.</desc>
    <g id="All-screens" stroke="none" stroke-width="1" fill="none" fill-rule="evenodd">
        <g id="1A-Hisab-kitaab--Home" transform="translate(-320.000000, -47.000000)" fill="#FFFFFF" stroke="#222222" stroke-width="0.5">
            <g id="Group" transform="translate(320.000000, 47.000000)">
                <path d="M10,0.25 C10.25,0.25 10.4964351,0.381238521 10.6825983,0.567401695 C10.8687615,0.753564869 11,1 11,1.25 L11,1.25 L11,2.82977905 C12.4761772,3.10157898 13.7603733,3.88404421 14.6577348,4.98331209 C15.4990223,6.01388924 16,7.32300579 16,8.75 L16,8.75 L16,14.2747741 C16.7890694,14.6887368 18.0020044,15.4715636 18.8345309,16.7758552 C19.3724594,17.6186098 19.75,18.6800212 19.75,20 C19.75,20.25 19.6187615,20.4964351 19.4325983,20.6825983 C19.2464351,20.8687615 19,21 18.75,21 L18.75,21 L13.4913023,21 C13.5652685,22.0649977 13.1624418,23.0373064 12.4748741,23.7248741 C11.8414988,24.3582494 10.9664987,24.75 10,24.75 C9.03350168,24.75 8.15850156,24.3582493 7.52512608,23.7248738 C6.8375584,23.0373061 6.43473148,22.0649975 6.50869774,21 L6.50869774,21 L1.25,21 C1,21 0.753564869,20.8687615 0.567401695,20.6825983 C0.381238521,20.4964351 0.25,20.25 0.25,20 C0.25,18.6668083 0.635101826,17.5974044 1.18178191,16.7591616 C2.01522071,15.4812221 3.22062244,14.7390415 4,14.4136639 L4,14.4136639 L4,8.75 C4,7.32300579 4.50097772,6.01388924 5.34226519,4.98331209 C6.23962672,3.88404421 7.5238228,3.10157898 9,2.82977905 L9,2.82977905 L9,1.25 C9,1 9.13123852,0.753564869 9.3174017,0.567401695 C9.50356487,0.381238521 9.75,0.25 10,0.25 Z M11.4797793,21 L8.52022064,21 C8.43760967,21.5117491 8.61417963,21.9854997 8.93934002,22.3106601 C9.21078656,22.5821067 9.58578643,22.75 10,22.75 C10.414213,22.75 10.7892131,22.5821066 11.0606598,22.3106598 C11.3858202,21.9854994 11.5623904,21.5117489 11.4797793,21 Z M10,4.75 C8.88354862,4.75 7.89645806,5.2027586 7.18204927,5.91716739 C6.44593285,6.65328381 6,7.66745034 6,8.75 L6,15 C6,15.2031237 5.91647935,15.4035909 5.75512687,15.6021839 C5.5765258,15.8220065 5.30711706,16.0360752 4.94374921,16.245647 C4.15493803,16.593738 2.87507125,17.1798248 2.41696015,19 L17.7376468,19 C17.1010133,17.10612 15.5296452,16.3837776 14.7277881,16.0221084 C14.5196763,15.9178296 14.3299218,15.7542423 14.1962007,15.5632122 C14.0757756,15.3911764 14,15.1963311 14,15 L14,8.75 C14,7.66745034 13.5540672,6.65328381 12.8179507,5.91716739 C12.1035419,5.2027586 11.1164514,4.75 10,4.75 Z" id="Shape"></path>
            </g>
        </g>
    </g>
</svg>