<?xml version="1.0" encoding="UTF-8"?>
<svg width="18px" height="20px" viewBox="0 0 18 20" version="1.1" xmlns="http://www.w3.org/2000/svg" xmlns:xlink="http://www.w3.org/1999/xlink">
    <!-- Generator: sketchtool 63.1 (101010) - https://sketch.com -->
    <title>65281095-2043-40F9-9A8B-DD0FAA8A9776@1.5x</title>
    <desc>Created with sketchtool.</desc>
    <g id="All-screens" stroke="none" stroke-width="1" fill="none" fill-rule="evenodd">
        <g id="1A-Hisab-kitaab--Home" transform="translate(-313.000000, -850.000000)" fill="#FFFFFF" stroke="#222222" stroke-width="0.6">
            <g id="Bottom-Nav.-Copy-3" transform="translate(15.000000, 813.000000)">
                <g id="Group-4" transform="translate(99.000000, 0.000000)">
                    <path d="M208.099968,47 C211.593155,47 213.688081,48.2402144 214.870957,49.8891602 C215.806329,51.1930805 216.098289,52.6529364 216.175532,53.6942863 L216.193915,54.0251147 L216.193915,54.0251147 L216.199933,54.3202148 L216.199933,54.3202148 C216.203567,55.3365974 215.351469,56 214.47786,56 L201.722073,56 C200.848462,56 199.996368,55.3365956 200,54.320213 L200.006019,54.0251129 C200.007953,53.9728209 200.010403,53.9190402 200.013443,53.8638693 L200.039338,53.5169497 C200.136072,52.49121 200.445571,51.1206396 201.328978,49.8891593 C202.511855,48.2402144 204.60678,47 208.099968,47 Z M208.099968,48.8 C205.080547,48.8 203.578845,49.8408896 202.791573,50.9383577 C202.004533,52.0355009 201.820203,53.3431433 201.801617,54.2 L214.398317,54.2 C214.379732,53.3431433 214.195401,52.0355009 213.408363,50.9383577 C212.62109,49.8408896 211.119389,48.8 208.099968,48.8 Z M208.100056,38 C210.088281,38 211.700056,39.6117749 211.700056,41.6 C211.700056,43.5882251 210.088281,45.2 208.100056,45.2 C206.111832,45.2 204.500056,43.5882251 204.500056,41.6 C204.500056,39.6117749 206.111832,38 208.100056,38 Z M208.100056,39.8 C207.105944,39.8 206.300056,40.6058879 206.300056,41.6 C206.300056,42.5941121 207.105944,43.4 208.100056,43.4 C209.094169,43.4 209.900056,42.5941121 209.900056,41.6 C209.900056,40.6058879 209.094169,39.8 208.100056,39.8 Z" id="Shape"></path>
                </g>
            </g>
        </g>
    </g>
</svg>