<?xml version="1.0" encoding="UTF-8"?>
<svg width="50px" height="50px" viewBox="0 0 50 50" version="1.1" xmlns="http://www.w3.org/2000/svg" xmlns:xlink="http://www.w3.org/1999/xlink">
    <!-- Generator: sketchtool 63.1 (101010) - https://sketch.com -->
    <title>DB984250-8082-4FD5-B2CD-4E26A4C221DC@1.5x</title>
    <desc>Created with sketchtool.</desc>
    <g id="Profile-&amp;-Intro" stroke="none" stroke-width="1" fill="none" fill-rule="evenodd">
        <g id="6G-e-Wallets" transform="translate(-36.000000, -247.000000)">
            <g id="Group" transform="translate(15.000000, 227.000000)">
                <g id="Group-3" transform="translate(21.000000, 20.000000)">
                    <g id="Group-2">
                        <circle id="Oval" stroke="#FFFFFF" stroke-width="2" fill="#060C36" cx="25" cy="25" r="24"></circle>
                        <g id="Group" transform="translate(15.000000, 16.000000)" fill="#F4F4F4" stroke="#060C36" stroke-width="0.8">
                            <path d="M0,3 C0,1.343145 1.343146,0 3,0 L12,0 C13.656855,0 15,1.343145 15,3 L15,4 L17,4 C18.656855,4 20,5.343145 20,7 L20,15 C20,16.656853 18.656855,18 17,18 L3,18 C1.343146,18 0,16.656853 0,15 L0,3 Z M18,12 L18,10 L14,10 L14,12 L18,12 Z M18,8 L14,8 C12.895431,8 12,8.895431 12,10 L12,12 C12,13.104569 12.895431,14 14,14 L18,14 L18,15 C18,15.552284 17.552284,16 17,16 L3,16 C2.447715,16 2,15.552285 2,15 L2,6 L17,6 C17.552284,6 18,6.447716 18,7 L18,8 Z M13,3 L13,4 L2,4 L2,3 C2,2.447716 2.447715,2 3,2 L12,2 C12.552285,2 13,2.447716 13,3 Z" id="Shape"></path>
                        </g>
                    </g>
                </g>
            </g>
        </g>
    </g>
</svg>